<svg width="76" height="76" viewBox="0 0 76 76" fill="none" xmlns="http://www.w3.org/2000/svg">
<path d="M36.7563 75.9978C39.2734 76.0802 41.1341 73.8392 40.9146 71.3298C40.6951 68.8203 38.4741 67.0017 35.962 66.824C31.4449 66.5043 27.0438 65.1247 23.1258 62.77C17.898 59.6281 13.7989 54.9114 11.4159 49.2961C9.03287 43.6807 8.48827 37.4549 9.86027 31.5109C10.2785 29.699 10.8683 27.9416 11.6165 26.2604C12.4311 26.4293 13.275 26.518 14.1396 26.518C20.9726 26.518 26.5117 20.9775 26.5117 14.1429C26.5117 13.2781 26.423 12.434 26.2543 11.6193C29.1594 10.3256 32.276 9.51277 35.483 9.23212C41.5587 8.70045 47.6466 10.1063 52.8744 13.2482C58.1021 16.3901 62.2011 21.1067 64.5841 26.7221C66.3701 30.9306 67.1231 35.4819 66.8111 40.0006C66.6381 42.5136 68.1291 44.9666 70.5831 45.5332C73.0371 46.0999 75.5141 44.5688 75.7831 42.0641C76.4711 35.6509 75.5181 29.141 72.9791 23.1578C69.8441 15.7691 64.4501 9.56303 57.5715 5.42896C50.6929 1.2949 42.6824 -0.554902 34.6882 0.144668C29.9491 0.559379 25.3601 1.85735 21.1468 3.94266C19.1548 2.57093 16.741 1.76791 14.1396 1.76791C7.30667 1.76791 1.76747 7.3084 1.76747 14.1429C1.76747 16.7449 2.57037 19.1593 3.94177 21.1518C2.64087 23.7812 1.64137 26.5673 0.973968 29.4589C-0.831232 37.2799 -0.11473 45.4718 3.02087 52.8604C6.15637 60.249 11.55 66.4551 18.4286 70.5892C23.9989 73.9369 30.3113 75.7867 36.7563 75.9978Z" fill="white"/>
<path d="M38.4862 14.1479C36.3782 14.1049 34.9172 16.0682 35.2107 18.1566C35.5041 20.245 37.4512 21.6528 39.55 21.8543C41.6605 22.0569 43.7235 22.6725 45.6173 23.6797C48.6426 25.2887 51.0811 27.8144 52.5831 30.8948C54.0852 33.9751 54.5737 37.4521 53.9787 40.8272C53.8768 41.4053 53.744 41.9753 53.5815 42.535C53.111 42.465 52.6296 42.4287 52.1396 42.4287C46.7709 42.4287 42.4187 46.782 42.4187 52.152C42.4187 52.642 42.4549 53.1236 42.5249 53.5942C41.7851 53.8091 41.0278 53.9719 40.2582 54.0801C36.8651 54.5571 33.4082 53.9474 30.3828 52.3384C27.3575 50.7294 24.9191 48.2038 23.417 45.1234C22.4768 43.1951 21.9337 41.1115 21.8049 38.9946C21.6768 36.8896 20.3382 34.8941 18.2618 34.5279C16.1854 34.1616 14.1727 35.5536 14.1421 37.6623C14.088 41.387 14.9064 45.0915 16.5544 48.4713C18.7633 53.0013 22.3492 56.7155 26.7983 59.0816C31.2473 61.4478 36.331 62.3444 41.3208 61.643C43.1804 61.3815 44.9914 60.9032 46.7194 60.2246C48.2679 61.2669 50.1328 61.8752 52.1396 61.8752C57.5084 61.8752 61.8606 57.522 61.8606 52.152C61.8606 50.1446 61.2524 48.2794 60.2104 46.7304C60.7878 45.2593 61.2207 43.7267 61.498 42.1534C62.3731 37.1899 61.6546 32.0768 59.4457 27.5469C57.2368 23.0169 53.6509 19.3027 49.2019 16.9365C45.8824 15.1711 42.2097 14.2238 38.4862 14.1479Z" fill="white"/>
</svg>
