<svg width="375" height="312" viewBox="0 0 375 312" fill="none" xmlns="http://www.w3.org/2000/svg">
<g opacity="0.25">
<g opacity="0.15">
<path d="M142.741 -65.5868H98.6416L76.5981 -27.5082H32.4971L10.4546 10.5703H-33.6454L-55.6909 48.6478L-55.6919 49.2147L-33.8093 87.0102L-55.6919 124.803L-55.6909 125.37L-33.7263 163.307L-33.6454 163.448H10.4556L32.4172 201.387L32.4981 201.529H76.5991L98.5627 239.466L98.6426 239.607H142.742L164.706 277.543L164.787 277.687H209.213L231.26 239.608L275.359 239.608L297.404 201.53L341.503 201.53L363.548 163.448H407.647L429.692 125.37V124.803L407.812 87.0102L429.692 49.2147V48.6478L407.728 10.7107L407.648 10.5703H363.549L341.586 -27.3678L341.505 -27.5082H297.406L275.443 -65.4463L275.362 -65.5868H231.263L209.297 -103.524L209.216 -103.665H164.786L142.741 -65.5868ZM98.9713 -65.0198H142.74L164.622 -27.2243L142.74 10.5713H98.9713L77.0887 -27.2243L98.9713 -65.0198ZM165.114 125.37L208.886 125.37L230.768 163.165L208.886 200.963H165.114L143.233 163.165L165.114 125.37ZM142.74 162.88H98.9713L77.0887 125.088L98.9713 87.2922H142.74L164.622 125.088L142.74 162.88ZM231.259 162.88L209.377 125.088L231.259 87.2922H275.029L296.911 125.087L275.029 162.881L231.259 162.88ZM208.881 124.802L165.116 124.802L143.233 87.0092L165.116 49.2137L208.881 49.2137L230.767 87.0092L208.881 124.802ZM142.74 86.7262H98.9713L77.0887 48.9317L98.9713 11.1362H142.74L164.622 48.9297L142.74 86.7262ZM231.259 86.7262L209.377 48.9317L231.259 11.1362H275.029L296.911 48.9317L275.029 86.7262H231.259ZM208.885 48.6478L165.113 48.6478L143.232 10.8532L165.113 -26.9423H208.885L230.767 10.8512L208.885 48.6478ZM32.8269 -26.9414H76.5961L98.4787 10.8522L76.5961 48.6478H32.8269L10.9462 10.8532L32.8269 -26.9414ZM-33.3157 86.7262L-55.1983 48.9317L-33.3157 11.1362H10.4536L32.3342 48.9317L10.4536 86.7262H-33.3157ZM32.8249 49.2147H76.5981L98.4787 87.0102L76.5981 124.803H32.8249L10.9462 87.0102L32.8249 49.2147ZM-33.3157 162.88L-55.1983 125.088L-33.3157 87.2922H10.4536L32.3342 125.086L10.4526 162.88H-33.3157ZM32.8269 200.963L10.9462 163.165L32.8269 125.37H76.5961L98.4787 163.165L76.5961 200.963H32.8269ZM98.9713 239.04L77.0887 201.246L98.9713 163.447H142.74L164.622 201.244L142.74 239.04H98.9713ZM208.881 277.119H165.116L143.233 239.326L165.116 201.529H208.881L230.767 239.326L208.881 277.119ZM275.029 239.04L231.259 239.04L209.377 201.244L231.259 163.447H275.029L296.911 201.244L275.029 239.04ZM341.171 200.963L297.402 200.963L275.519 163.165L297.402 125.37H341.171L363.054 163.165L341.171 200.963ZM407.315 87.2932L429.197 125.089L407.315 162.881H363.545L341.666 125.089L363.545 87.2932H407.315ZM341.175 124.802H297.402L275.519 87.0092L297.402 49.2137H341.175L363.055 87.0092L341.175 124.802ZM407.315 11.1362L429.197 48.9297L407.315 86.7262H363.545L341.666 48.9317L363.545 11.1362H407.315ZM341.171 -26.9414L363.054 10.8522L341.171 48.6478H297.402L275.519 10.8532L297.402 -26.9423L341.171 -26.9414ZM275.029 -65.0198L296.911 -27.2273L275.029 10.5703H231.259L209.377 -27.2253L231.259 -65.0208H275.029V-65.0198ZM208.881 -103.097L230.767 -65.3048L208.881 -27.5082H165.116L143.233 -65.3038L165.116 -103.098L208.881 -103.097Z" fill="white"/>
<path opacity="0.5" d="M-30.4967 81.8563L-49.5596 48.932L-30.4967 16.0066H7.63304L26.6949 48.932L7.63304 81.8563H-30.4967Z" fill="white"/>
<path opacity="0.4" d="M35.6468 43.779L16.585 10.8536L35.6468 -22.0717H73.7776L92.8404 10.8536L73.7776 43.779H35.6468Z" fill="white"/>
<path opacity="0.8" d="M101.792 81.8563L82.7275 48.932L101.792 16.0066H139.92L158.984 48.932L139.92 81.8563H101.792Z" fill="white"/>
<path opacity="0.4" d="M-30.4967 158.014L-49.5596 125.089L-30.4967 92.164H7.63304L26.6949 125.089L7.63304 158.014H-30.4967Z" fill="white"/>
<path opacity="0.4" d="M101.792 158.014L82.7275 125.089L101.792 92.164H139.92L158.984 125.089L139.92 158.014H101.792Z" fill="white"/>
<path opacity="0.8" d="M101.792 234.172L82.7275 201.244L101.792 168.32H139.92L158.984 201.244L139.92 234.172H101.792Z" fill="white"/>
<path opacity="0.4" d="M167.935 272.248L148.872 239.326L167.935 206.398H206.063L225.129 239.326L206.063 272.248H167.935Z" fill="white"/>
<path opacity="0.8" d="M234.078 234.172L215.016 201.244L234.078 168.32H272.208L291.272 201.244L272.208 234.172H234.078Z" fill="white"/>
<path opacity="0.5" d="M35.6468 196.091L16.585 163.165L35.6468 130.241H73.7776L92.8404 163.165L73.7776 196.091H35.6468Z" fill="white"/>
<path opacity="0.8" d="M234.078 81.8563L215.016 48.932L234.078 16.0066H272.208L291.272 48.932L272.208 81.8563H234.078Z" fill="white"/>
<path opacity="0.5" d="M101.792 5.7005L82.7275 -27.2249L101.792 -60.1492H139.92L158.984 -27.2249L139.92 5.7005L101.792 5.7005Z" fill="white"/>
<path opacity="0.5" d="M234.078 5.7005L215.016 -27.2249L234.078 -60.1492H272.208L291.272 -27.2249L272.208 5.7005L234.078 5.7005Z" fill="white"/>
<path opacity="0.5" d="M167.935 119.935L148.872 87.0104L167.935 54.0851H206.063L225.129 87.0104L206.063 119.935H167.935Z" fill="white"/>
<path opacity="0.4" d="M300.223 43.779L281.158 10.8536L300.223 -22.0717H338.353L357.416 10.8536L338.353 43.779H300.223Z" fill="white"/>
<path opacity="0.5" d="M366.366 81.8563L347.306 48.932L366.366 16.0066H404.495L423.559 48.932L404.495 81.8563H366.366Z" fill="white"/>
<path opacity="0.4" d="M234.078 158.014L215.016 125.089L234.078 92.164H272.208L291.272 125.089L272.208 158.014H234.078Z" fill="white"/>
<path opacity="0.4" d="M366.366 158.014L347.306 125.089L366.366 92.164H404.495L423.559 125.089L404.495 158.014H366.366Z" fill="white"/>
<path opacity="0.5" d="M300.223 196.091L281.158 163.165L300.223 130.241H338.353L357.416 163.165L338.353 196.091H300.223Z" fill="white"/>
</g>
<path opacity="0.2" d="M401.484 146.975C400.957 146.715 400.368 146.556 399.739 146.556C397.662 146.556 395.977 148.152 395.807 150.18H342.868C342.695 148.152 341.009 146.556 338.933 146.556C338.357 146.556 337.808 146.686 337.311 146.907L310.87 101.242C311.899 100.527 312.576 99.3411 312.576 97.999C312.576 96.6559 311.899 95.4742 310.873 94.7569L337.322 49.0742C337.828 49.3054 338.386 49.4399 338.973 49.4399C341.049 49.4399 342.737 47.8457 342.908 45.8172L395.847 45.8172C396.017 47.8457 397.705 49.4399 399.779 49.4399C400.395 49.4399 400.973 49.2934 401.494 49.0374L427.965 94.7569C426.935 95.4742 426.26 96.6559 426.26 97.999C426.26 99.3411 426.935 100.527 427.965 101.242L401.484 146.975ZM336.745 42.2223C335.693 42.9317 335.013 44.1254 335.013 45.4923C335.013 46.8484 335.694 48.047 336.745 48.7554L310.296 94.435C309.786 94.1909 309.219 94.0445 308.612 94.0445C306.538 94.0445 304.85 95.6446 304.682 97.6702H251.737C251.566 95.6456 249.883 94.0445 247.802 94.0445C247.201 94.0445 246.633 94.1909 246.121 94.435L219.649 48.7116C220.661 47.9942 221.325 46.8225 221.325 45.4914C221.325 44.1573 220.661 42.9825 219.649 42.2682L246.121 -3.45533C246.633 -3.21021 247.201 -3.06873 247.802 -3.06873C249.883 -3.06873 251.567 -4.66685 251.737 -6.69443H304.682C304.85 -4.66685 306.538 -3.06873 308.612 -3.06873C309.219 -3.06873 309.786 -3.21021 310.296 -3.45533L336.745 42.2223ZM310.297 199.451C309.787 199.211 309.22 199.067 308.613 199.067C306.539 199.067 304.851 200.666 304.683 202.688L251.738 202.688C251.567 200.667 249.884 199.067 247.803 199.067C247.202 199.067 246.634 199.211 246.122 199.451L219.632 153.704C220.63 152.989 221.284 151.829 221.284 150.507C221.284 149.188 220.63 148.032 219.632 147.311L246.122 101.568C246.634 101.809 247.202 101.957 247.803 101.957C249.884 101.957 251.568 100.357 251.738 98.3278H304.683C304.851 100.356 306.539 101.957 308.613 101.957C309.22 101.957 309.787 101.81 310.297 101.568L336.731 147.223C335.668 147.931 334.968 149.137 334.968 150.507C334.968 151.879 335.667 153.087 336.731 153.795L310.297 199.451ZM491.031 94.0445C488.957 94.0445 487.271 95.6446 487.1 97.6702H434.158C433.99 95.6456 432.3 94.0445 430.224 94.0445C429.621 94.0445 429.053 94.1909 428.545 94.435L402.068 48.7116C403.082 47.9942 403.748 46.8225 403.748 45.4914C403.748 44.1573 403.082 42.9825 402.068 42.2682L428.545 -3.45533C429.053 -3.21021 429.621 -3.06873 430.224 -3.06873C432.414 -3.06873 434.189 -4.83527 434.189 -7.02525C434.189 -9.20527 432.415 -10.9738 430.224 -10.9738C428.039 -10.9738 426.26 -9.20625 426.26 -7.02525C426.26 -5.6782 426.935 -4.49354 427.965 -3.77616L401.494 41.9394C400.974 41.6853 400.395 41.5338 399.779 41.5338C397.706 41.5338 396.017 43.131 395.847 45.1586L342.908 45.1586C342.737 43.131 341.05 41.5338 338.973 41.5338C338.386 41.5338 337.827 41.6733 337.322 41.9025L310.87 -3.77616C311.899 -4.49354 312.576 -5.67719 312.576 -7.02525C312.576 -9.20527 310.801 -10.9738 308.612 -10.9738C306.538 -10.9738 304.85 -9.3776 304.682 -7.35303H251.737C251.566 -9.37663 249.883 -10.9738 247.802 -10.9738C247.201 -10.9738 246.633 -10.8323 246.121 -10.5902L219.665 -56.2908C220.69 -57.0021 221.365 -58.1839 221.365 -59.5349C221.365 -60.88 220.69 -62.0636 219.665 -62.778L246.122 -108.476C246.634 -108.234 247.202 -108.088 247.803 -108.088C249.993 -108.088 251.773 -109.859 251.773 -112.042C251.773 -114.225 249.994 -116 247.803 -116C245.62 -116 243.839 -114.226 243.839 -112.042C243.839 -110.699 244.518 -109.516 245.55 -108.798L219.086 -63.1008C218.577 -63.3389 218.008 -63.4864 217.401 -63.4864C215.327 -63.4864 213.638 -61.8922 213.47 -59.8616H160.526C160.359 -61.8922 158.673 -63.4864 156.597 -63.4864C155.991 -63.4864 155.425 -63.3389 154.912 -63.1008L128.45 -108.798C129.482 -109.516 130.16 -110.699 130.16 -112.042C130.16 -114.225 128.38 -116 126.191 -116C124.002 -116 122.226 -114.226 122.226 -112.042C122.226 -109.86 124.002 -108.088 126.191 -108.088C126.797 -108.088 127.365 -108.234 127.878 -108.476L154.333 -62.777C153.307 -62.0626 152.632 -60.879 152.632 -59.5339C152.632 -58.1828 153.307 -57.0012 154.333 -56.2898L127.878 -10.5892C127.365 -10.8313 126.798 -10.9728 126.191 -10.9728C124.115 -10.9728 122.433 -9.37663 122.26 -7.35206H69.318C69.1461 -9.37565 67.4624 -10.9728 65.3871 -10.9728C63.1958 -10.9728 61.4212 -9.2053 61.4212 -7.02427C61.4212 -5.67722 62.0937 -4.4925 63.1279 -3.77512L36.6559 41.9404C36.1353 41.6863 35.5587 41.5348 34.9412 41.5348C32.8649 41.5348 31.1792 43.132 31.0084 45.1596H-21.9316C-22.1055 43.132 -23.7892 41.5348 -25.8645 41.5348C-26.456 41.5348 -27.0126 41.6743 -27.5202 41.9035L-53.9692 -3.77512C-52.941 -4.4925 -52.2645 -5.67622 -52.2645 -7.02427C-52.2645 -9.20429 -54.0391 -10.9728 -56.2274 -10.9728C-58.4177 -10.9728 -60.1953 -9.2053 -60.1953 -7.02427C-60.1953 -4.8353 -58.4177 -3.06776 -56.2274 -3.06776C-55.6249 -3.06776 -55.0563 -3.20924 -54.5477 -3.45435L-28.0977 42.2223C-29.1459 42.9317 -29.8314 44.1254 -29.8314 45.4923C-29.8314 46.8484 -29.1449 48.047 -28.0977 48.7554L-54.5457 94.435C-55.0543 94.1909 -55.6229 94.0445 -56.2254 94.0445C-58.3028 94.0445 -59.9904 95.6446 -60.1593 97.6702L-113.103 97.6692C-113.271 95.6456 -114.956 94.0445 -117.034 94.0445C-119.222 94.0445 -121 95.816 -121 97.999C-121 100.183 -119.222 101.957 -117.034 101.957C-114.957 101.957 -113.272 100.357 -113.103 98.3278L-60.1593 98.3288C-59.9914 100.357 -58.3028 101.957 -56.2254 101.957C-55.6229 101.957 -55.0543 101.811 -54.5457 101.569L-28.1067 147.224C-29.1729 147.932 -29.8743 149.138 -29.8743 150.508C-29.8743 151.88 -29.1729 153.088 -28.1067 153.796L-54.5457 199.452C-55.0543 199.212 -55.6229 199.068 -56.2254 199.068C-58.4157 199.068 -60.1933 200.837 -60.1933 203.023C-60.1933 205.203 -58.4157 206.972 -56.2254 206.972C-54.0371 206.972 -52.2625 205.204 -52.2625 203.023C-52.2625 201.675 -52.939 200.493 -53.9632 199.775L-27.5292 154.112C-27.0306 154.334 -26.485 154.464 -25.9055 154.464C-23.8291 154.464 -22.1465 152.868 -21.9736 150.838H30.9664C31.1363 152.868 32.8259 154.464 34.9013 154.464C35.5318 154.464 36.1193 154.306 36.6459 154.046L63.1289 199.776C62.0957 200.493 61.4222 201.676 61.4222 203.024C61.4222 205.204 63.1968 206.973 65.3881 206.973C67.4634 206.973 69.1471 205.378 69.319 203.352H122.261C122.434 205.378 124.116 206.973 126.192 206.973C126.798 206.973 127.366 206.832 127.879 206.591L154.3 252.229C153.22 252.934 152.507 254.148 152.507 255.532C152.507 256.917 153.221 258.13 154.3 258.835L127.879 304.477C127.366 304.233 126.799 304.091 126.192 304.091C124.003 304.091 122.227 305.863 122.227 308.042C122.227 310.225 124.003 311.999 126.192 311.999C128.381 311.999 130.161 310.225 130.161 308.042C130.161 306.699 129.483 305.513 128.456 304.797L154.883 259.152C155.373 259.365 155.907 259.488 156.475 259.488C158.549 259.488 160.231 257.889 160.407 255.863L213.349 255.863C213.517 257.888 215.204 259.488 217.28 259.488C217.923 259.488 218.524 259.317 219.058 259.05L245.552 304.798C244.52 305.514 243.841 306.7 243.841 308.042C243.841 310.226 245.622 312 247.805 312C249.995 312 251.775 310.226 251.775 308.042C251.775 305.864 249.996 304.092 247.805 304.092C247.204 304.092 246.636 304.234 246.124 304.478L219.627 258.71C220.604 257.989 221.244 256.843 221.244 255.533C221.244 254.226 220.603 253.078 219.627 252.36L246.124 206.592C246.636 206.833 247.204 206.974 247.805 206.974C249.886 206.974 251.57 205.379 251.74 203.353L304.685 203.353C304.853 205.379 306.541 206.974 308.615 206.974C310.803 206.974 312.579 205.206 312.579 203.025C312.579 201.677 311.902 200.495 310.876 199.777L337.314 154.114C337.811 154.336 338.36 154.466 338.936 154.466C341.011 154.466 342.698 152.87 342.871 150.84H395.81C395.98 152.87 397.664 154.466 399.742 154.466C400.371 154.466 400.96 154.308 401.487 154.048L427.968 199.778C426.938 200.496 426.263 201.678 426.263 203.026C426.263 205.206 428.042 206.975 430.227 206.975C432.417 206.975 434.192 205.207 434.192 203.026C434.192 200.841 432.418 199.071 430.227 199.071C429.624 199.071 429.056 199.215 428.548 199.455L402.058 153.708C403.052 152.993 403.71 151.833 403.71 150.511C403.71 149.192 403.052 148.036 402.058 147.315L428.548 101.572C429.056 101.813 429.624 101.96 430.227 101.96C432.303 101.96 433.994 100.361 434.161 98.3318H487.103C487.274 100.36 488.959 101.96 491.034 101.96C493.224 101.96 495 100.189 495 98.003C494.997 95.817 493.222 94.0445 491.031 94.0445ZM217.319 146.556C215.244 146.556 213.557 148.152 213.389 150.18H160.445C160.277 148.152 158.589 146.556 156.516 146.556C155.937 146.556 155.385 146.686 154.893 146.907L128.451 101.242C129.483 100.527 130.161 99.3411 130.161 97.999C130.161 96.6559 129.483 95.4742 128.456 94.7569L154.903 49.0742C155.41 49.3054 155.966 49.4399 156.558 49.4399C158.63 49.4399 160.319 47.8457 160.488 45.8172H213.431C213.6 47.8457 215.286 49.4399 217.36 49.4399C217.976 49.4399 218.556 49.2934 219.079 49.0374L245.551 94.7569C244.519 95.4742 243.84 96.6559 243.84 97.999C243.84 99.3411 244.519 100.527 245.551 101.242L219.068 146.975C218.54 146.716 217.951 146.556 217.319 146.556ZM154.913 -55.965C155.426 -55.7229 155.992 -55.5744 156.598 -55.5744C158.675 -55.5744 160.36 -57.1745 160.527 -59.1991H213.471C213.639 -57.1755 215.327 -55.5744 217.402 -55.5744C218.008 -55.5744 218.578 -55.7219 219.087 -55.965L245.551 -10.2634C244.519 -9.54801 243.84 -8.36436 243.84 -7.02427C243.84 -5.67722 244.519 -4.4925 245.551 -3.77512L219.079 41.9404C218.557 41.6863 217.977 41.5348 217.36 41.5348C215.286 41.5348 213.6 43.132 213.431 45.1596H160.488C160.319 43.132 158.63 41.5348 156.558 41.5348C155.965 41.5348 155.41 41.6743 154.903 41.9035L128.451 -3.77512C129.483 -4.4925 130.161 -5.67622 130.161 -7.02427C130.161 -8.36436 129.483 -9.54801 128.456 -10.2634L154.913 -55.965ZM63.7034 -3.45435C64.212 -3.20924 64.7816 -3.06776 65.3871 -3.06776C67.4624 -3.06776 69.1461 -4.6659 69.318 -6.69346H122.26C122.433 -4.6659 124.115 -3.06776 126.191 -3.06776C126.797 -3.06776 127.365 -3.20924 127.878 -3.45435L154.323 42.2223C153.274 42.9317 152.591 44.1254 152.591 45.4923C152.591 46.8484 153.275 48.047 154.323 48.7554L127.878 94.435C127.365 94.1909 126.798 94.0445 126.191 94.0445C124.115 94.0445 122.433 95.6446 122.26 97.6702H69.318C69.1461 95.6456 67.4624 94.0445 65.3871 94.0445C64.7816 94.0445 64.212 94.1909 63.7034 94.435L37.2284 48.7116C38.2426 47.9942 38.9051 46.8225 38.9051 45.4914C38.9051 44.1573 38.2416 42.9825 37.2284 42.2682L63.7034 -3.45435ZM-53.9682 101.242C-52.94 100.527 -52.2635 99.3411 -52.2635 97.999C-52.2635 96.6559 -52.94 95.4742 -53.9642 94.7569L-27.5202 49.0742C-27.0126 49.3054 -26.457 49.4399 -25.8645 49.4399C-23.7901 49.4399 -22.1055 47.8457 -21.9316 45.8172H31.0084C31.1792 47.8457 32.8649 49.4399 34.9412 49.4399C35.5587 49.4399 36.1343 49.2934 36.6559 49.0374L63.1279 94.7569C62.0947 95.4742 61.4212 96.6559 61.4212 97.999C61.4212 99.3411 62.0937 100.527 63.1279 101.242L36.6449 146.975C36.1183 146.715 35.5298 146.556 34.9003 146.556C32.8249 146.556 31.1353 148.152 30.9654 150.18H-21.9746C-22.1474 148.152 -23.8301 146.556 -25.9065 146.556C-26.486 146.556 -27.0316 146.686 -27.5302 146.907L-53.9682 101.242ZM37.2164 153.704C38.2087 152.989 38.8681 151.829 38.8681 150.507C38.8681 149.188 38.2087 148.032 37.2164 147.311L63.7044 101.568C64.213 101.809 64.7826 101.957 65.3881 101.957C67.4634 101.957 69.1471 100.357 69.319 98.3278H122.261C122.434 100.356 124.116 101.957 126.192 101.957C126.798 101.957 127.366 101.81 127.879 101.568L154.31 147.223C153.248 147.931 152.548 149.137 152.548 150.507C152.548 151.879 153.248 153.087 154.31 153.795L127.879 199.451C127.366 199.211 126.799 199.067 126.192 199.067C124.116 199.067 122.434 200.666 122.261 202.688H69.319C69.1471 200.667 67.4634 199.067 65.3881 199.067C64.7826 199.067 64.213 199.211 63.7044 199.451L37.2164 153.704ZM219.056 252.015C218.522 251.744 217.92 251.576 217.278 251.576C215.203 251.576 213.515 253.172 213.347 255.2L160.405 255.2C160.23 253.172 158.548 251.576 156.473 251.576C155.905 251.576 155.372 251.698 154.881 251.913L128.45 206.265C129.482 205.548 130.16 204.367 130.16 203.023C130.16 201.675 129.482 200.493 128.455 199.775L154.893 154.112C155.385 154.334 155.937 154.464 156.516 154.464C158.589 154.464 160.278 152.868 160.445 150.838H213.389C213.557 152.868 215.244 154.464 217.319 154.464C217.951 154.464 218.541 154.306 219.067 154.046L245.55 199.776C244.518 200.493 243.839 201.676 243.839 203.024C243.839 204.368 244.518 205.549 245.55 206.266L219.056 252.015Z" fill="white"/>
<path opacity="0.3" d="M365.728 138.809C365.289 138.592 364.799 138.459 364.273 138.459C362.544 138.459 361.135 139.793 360.997 141.481H316.881C316.74 139.793 315.337 138.459 313.604 138.459C313.124 138.459 312.668 138.57 312.256 138.755L290.22 100.701C291.08 100.107 291.641 99.1178 291.641 97.9999C291.641 96.88 291.081 95.8927 290.224 95.2958L312.263 57.2333C312.686 57.4276 313.146 57.5402 313.64 57.5402C315.372 57.5402 316.775 56.209 316.915 54.5212H361.03C361.171 56.209 362.579 57.5402 364.307 57.5402C364.82 57.5402 365.3 57.4126 365.735 57.2034L387.797 95.2958C386.938 95.8927 386.373 96.88 386.373 97.9999C386.373 99.1178 386.937 100.107 387.797 100.701L365.728 138.809ZM311.778 51.5232C310.906 52.113 310.334 53.1084 310.334 54.2432C310.334 55.3771 310.906 56.3724 311.778 56.9663L289.74 95.0268C289.316 94.8245 288.843 94.705 288.337 94.705C286.608 94.705 285.205 96.0351 285.065 97.7239H240.944C240.805 96.0351 239.399 94.705 237.668 94.705C237.166 94.705 236.693 94.8245 236.265 95.0268L214.205 56.9274C215.053 56.3296 215.606 55.3532 215.606 54.2432C215.606 53.1313 215.052 52.1529 214.205 51.56L236.265 13.4606C236.694 13.6639 237.166 13.7805 237.668 13.7805C239.399 13.7805 240.806 12.4513 240.944 10.7635H285.065C285.206 12.4513 286.608 13.7805 288.337 13.7805C288.843 13.7805 289.316 13.6639 289.74 13.4606L311.778 51.5232ZM289.74 182.538C289.316 182.334 288.843 182.217 288.337 182.217C286.608 182.217 285.205 183.551 285.065 185.235H240.944C240.805 183.551 239.399 182.217 237.668 182.217C237.166 182.217 236.693 182.334 236.265 182.538L214.195 144.417C215.023 143.821 215.572 142.856 215.572 141.755C215.572 140.656 215.023 139.692 214.195 139.091L236.265 100.969C236.694 101.173 237.166 101.293 237.668 101.293C239.399 101.293 240.806 99.9617 240.944 98.2739H285.065C285.206 99.9617 286.608 101.293 288.337 101.293C288.843 101.293 289.316 101.173 289.74 100.969L311.768 139.015C310.881 139.607 310.299 140.611 310.299 141.755C310.299 142.896 310.881 143.902 311.768 144.494L289.74 182.538ZM440.346 94.705C438.616 94.705 437.211 96.0351 437.07 97.7239H392.955C392.813 96.0351 391.406 94.705 389.678 94.705C389.176 94.705 388.7 94.8245 388.275 95.0268L366.216 56.9274C367.058 56.3296 367.612 55.3532 367.612 54.2432C367.612 53.1313 367.057 52.1529 366.216 51.56L388.275 13.4606C388.701 13.6639 389.176 13.7805 389.678 13.7805C391.503 13.7805 392.983 12.3069 392.983 10.4885C392.983 8.6662 391.503 7.19259 389.678 7.19259C387.855 7.19259 386.374 8.66522 386.374 10.4885C386.374 11.6064 386.938 12.5958 387.798 13.1926L365.736 51.2841C365.301 51.0748 364.821 50.9493 364.308 50.9493C362.58 50.9493 361.171 52.2764 361.031 53.9693H316.916C316.775 52.2764 315.373 50.9493 313.641 50.9493C313.147 50.9493 312.687 51.0619 312.264 51.2552L290.221 13.1926C291.081 12.5958 291.642 11.6064 291.642 10.4885C291.642 8.6662 290.166 7.19259 288.338 7.19259C286.609 7.19259 285.206 8.52374 285.066 10.2096H240.945C240.806 8.52374 239.4 7.19259 237.669 7.19259C237.167 7.19259 236.694 7.31116 236.266 7.51044L214.221 -30.5671C215.077 -31.1619 215.642 -32.1463 215.642 -33.2731C215.642 -34.394 215.078 -35.3794 214.221 -35.9752L236.266 -74.0567C236.695 -73.8545 237.167 -73.7299 237.669 -73.7299C239.496 -73.7299 240.978 -75.2095 240.978 -77.0278C240.978 -78.8472 239.496 -80.3238 237.669 -80.3238C235.848 -80.3238 234.365 -78.8482 234.365 -77.0278C234.365 -75.9099 234.929 -74.9216 235.791 -74.3237L213.737 -36.2443C213.312 -36.4435 212.841 -36.5671 212.338 -36.5671C210.606 -36.5671 209.203 -35.234 209.062 -33.5432H164.943C164.802 -35.234 163.398 -36.5671 161.67 -36.5671C161.164 -36.5671 160.692 -36.4435 160.268 -36.2443L138.216 -74.3237C139.074 -74.9216 139.639 -75.9099 139.639 -77.0278C139.639 -78.8472 138.157 -80.3238 136.333 -80.3238C134.507 -80.3238 133.027 -78.8482 133.027 -77.0278C133.027 -75.2095 134.508 -73.7299 136.333 -73.7299C136.837 -73.7299 137.309 -73.8545 137.738 -74.0567L159.783 -35.9752C158.926 -35.3794 158.364 -34.394 158.364 -33.2731C158.364 -32.1463 158.926 -31.1619 159.783 -30.5671L137.738 7.51044C137.309 7.31116 136.837 7.19259 136.333 7.19259C134.603 7.19259 133.198 8.52374 133.057 10.2096H88.9363C88.7934 8.52374 87.3875 7.19259 85.6619 7.19259C83.8373 7.19259 82.3575 8.66522 82.3575 10.4885C82.3575 11.6064 82.9181 12.5958 83.7794 13.1926L61.7199 51.2841C61.2853 51.0748 60.8036 50.9493 60.2901 50.9493C58.5594 50.9493 57.1545 52.2764 57.0146 53.9693H12.8997C12.7538 52.2764 11.3519 50.9493 9.62325 50.9493C9.13065 50.9493 8.66701 51.0619 8.24435 51.2552L-13.7992 13.1926C-12.9388 12.5958 -12.3753 11.6064 -12.3753 10.4885C-12.3753 8.6662 -13.8551 7.19259 -15.6777 7.19259C-17.5052 7.19259 -18.985 8.66522 -18.985 10.4885C-18.985 12.3059 -17.5052 13.7805 -15.6777 13.7805C-15.1761 13.7805 -14.7034 13.6639 -14.2768 13.4606L7.75974 51.5232C6.88843 52.113 6.31488 53.1084 6.31488 54.2432C6.31488 55.3771 6.88843 56.3724 7.75974 56.9663L-14.2768 95.0268C-14.7034 94.8245 -15.1761 94.705 -15.6777 94.705C-17.4083 94.705 -18.8172 96.0351 -18.9571 97.7239H-63.0721C-63.2149 96.0351 -64.6168 94.705 -66.3485 94.705C-68.172 94.705 -69.6528 96.1796 -69.6528 97.9989C-69.6528 99.8183 -68.172 101.294 -66.3485 101.294C-64.6168 101.294 -63.2149 99.9627 -63.0721 98.2749H-18.9561C-18.8162 99.9627 -17.4073 101.294 -15.6767 101.294C-15.1751 101.294 -14.7024 101.174 -14.2758 100.97L7.75374 139.016C6.86644 139.607 6.28191 140.612 6.28191 141.756C6.28191 142.897 6.86544 143.903 7.75374 144.495L-14.2758 182.538C-14.7024 182.334 -15.1751 182.217 -15.6767 182.217C-17.5042 182.217 -18.984 183.693 -18.984 185.515C-18.984 187.331 -17.5042 188.806 -15.6767 188.806C-13.8541 188.806 -12.3743 187.332 -12.3743 185.515C-12.3743 184.393 -12.9378 183.405 -13.7942 182.809L8.23436 144.759C8.65103 144.943 9.10766 145.05 9.58928 145.05C11.3159 145.05 12.7218 143.722 12.8657 142.03H56.9827C57.1216 143.722 58.5294 145.05 60.2581 145.05C60.7826 145.05 61.2733 144.917 61.7129 144.698L83.7804 182.808C82.9181 183.404 82.3585 184.392 82.3585 185.514C82.3585 187.33 83.8374 188.805 85.6629 188.805C87.3895 188.805 88.7954 187.475 88.9373 185.787H133.055C133.196 187.475 134.6 188.805 136.331 188.805C136.835 188.805 137.307 188.684 137.736 188.486L159.752 226.519C158.853 227.104 158.257 228.114 158.257 229.269C158.257 230.422 158.853 231.433 159.752 232.022L137.736 270.053C137.307 269.852 136.835 269.733 136.331 269.733C134.505 269.733 133.025 271.208 133.025 273.026C133.025 274.844 134.506 276.322 136.331 276.322C138.155 276.322 139.637 274.844 139.637 273.026C139.637 271.905 139.072 270.917 138.216 270.323L160.238 232.284C160.645 232.462 161.09 232.562 161.564 232.562C163.293 232.562 164.697 231.235 164.84 229.545H208.958C209.099 231.235 210.503 232.562 212.235 232.562C212.768 232.562 213.265 232.424 213.714 232.197L235.791 270.323C234.93 270.917 234.365 271.905 234.365 273.026C234.365 274.844 235.847 276.322 237.669 276.322C239.496 276.322 240.978 274.844 240.978 273.026C240.978 271.208 239.496 269.733 237.669 269.733C237.167 269.733 236.694 269.852 236.266 270.053L214.185 231.917C215.001 231.318 215.538 230.359 215.538 229.27C215.538 228.178 215.002 227.223 214.185 226.626L236.266 188.488C236.695 188.686 237.167 188.807 237.669 188.807C239.4 188.807 240.807 187.477 240.945 185.789H285.066C285.207 187.477 286.609 188.807 288.338 188.807C290.165 188.807 291.642 187.333 291.642 185.516C291.642 184.394 291.082 183.406 290.225 182.81L312.257 144.76C312.669 144.944 313.124 145.051 313.605 145.051C315.338 145.051 316.742 143.723 316.882 142.031H360.998C361.137 143.723 362.545 145.051 364.274 145.051C364.8 145.051 365.29 144.918 365.729 144.699L387.798 182.81C386.939 183.406 386.374 184.394 386.374 185.516C386.374 187.332 387.854 188.807 389.678 188.807C391.503 188.807 392.983 187.333 392.983 185.516C392.983 183.695 391.503 182.218 389.678 182.218C389.176 182.218 388.7 182.335 388.275 182.539L366.205 144.418C367.035 143.822 367.578 142.857 367.578 141.756C367.578 140.657 367.035 139.693 366.205 139.092L388.275 100.97C388.701 101.174 389.176 101.294 389.678 101.294C391.406 101.294 392.814 99.9627 392.955 98.2749H437.07C437.212 99.9627 438.616 101.294 440.346 101.294C442.17 101.294 443.651 99.8193 443.651 97.9989C443.65 96.1806 442.17 94.705 440.346 94.705ZM212.266 138.459C210.535 138.459 209.13 139.793 208.985 141.481L164.872 141.481C164.73 139.793 163.327 138.459 161.597 138.459C161.113 138.459 160.658 138.57 160.246 138.755L138.213 100.701C139.071 100.107 139.636 99.1178 139.636 97.9999C139.636 96.88 139.071 95.8927 138.215 95.2958L160.255 57.2333C160.677 57.4276 161.138 57.5402 161.633 57.5402C163.361 57.5402 164.766 56.209 164.908 54.5212L209.025 54.5212C209.167 56.209 210.57 57.5402 212.3 57.5402C212.814 57.5402 213.293 57.4126 213.728 57.2034L235.79 95.2958C234.929 95.8927 234.364 96.88 234.364 97.9999C234.364 99.1178 234.928 100.107 235.79 100.701L213.719 138.81C213.282 138.592 212.789 138.459 212.266 138.459ZM160.264 -30.295C160.689 -30.0988 161.161 -29.9742 161.666 -29.9742C163.394 -29.9742 164.799 -31.3054 164.939 -32.9942H209.058C209.2 -31.3054 210.602 -29.9742 212.334 -29.9742C212.837 -29.9742 213.309 -30.0988 213.733 -30.295L235.787 7.78445C234.926 8.37927 234.361 9.36862 234.361 10.4885C234.361 11.6064 234.925 12.5958 235.787 13.1926L213.725 51.2841C213.291 51.0748 212.811 50.9493 212.297 50.9493C210.567 50.9493 209.163 52.2764 209.022 53.9693L164.905 53.9693C164.763 52.2764 163.358 50.9493 161.63 50.9493C161.135 50.9493 160.673 51.0619 160.252 51.2552L138.21 13.1926C139.068 12.5958 139.633 11.6064 139.633 10.4885C139.633 9.36862 139.068 8.37927 138.212 7.78445L160.264 -30.295ZM84.259 13.4596C84.6837 13.6629 85.1563 13.7795 85.6619 13.7795C87.3885 13.7795 88.7944 12.4503 88.9363 10.7625H133.054C133.195 12.4503 134.599 13.7795 136.33 13.7795C136.834 13.7795 137.306 13.6629 137.735 13.4596L159.77 51.5222C158.898 52.112 158.326 53.1074 158.326 54.2422C158.326 55.3761 158.898 56.3714 159.77 56.9653L137.735 95.0258C137.306 94.8236 136.834 94.704 136.33 94.704C134.6 94.704 133.195 96.0341 133.054 97.7229H88.9363C88.7934 96.0341 87.3875 94.704 85.6619 94.704C85.1563 94.704 84.6837 94.8236 84.259 95.0258L62.1995 56.9264C63.0429 56.3286 63.5964 55.3522 63.5964 54.2422C63.5964 53.1303 63.0419 52.1519 62.1995 51.5591L84.259 13.4596ZM-13.7982 100.7C-12.9378 100.106 -12.3743 99.1168 -12.3743 97.9989C-12.3743 96.879 -12.9378 95.8917 -13.7942 95.2948L8.24536 57.2323C8.66702 57.4266 9.13165 57.5391 9.62425 57.5391C11.3519 57.5391 12.7548 56.208 12.9007 54.5202H57.0156C57.1565 56.208 58.5604 57.5391 60.291 57.5391C60.8036 57.5391 61.2863 57.4116 61.7209 57.2024L83.7804 95.2948C82.9181 95.8917 82.3585 96.879 82.3585 97.9989C82.3585 99.1168 82.9191 100.106 83.7804 100.7L61.7129 138.809C61.2723 138.592 60.7826 138.459 60.2581 138.459C58.5294 138.459 57.1216 139.793 56.9827 141.481H12.8647C12.7218 139.793 11.3149 138.459 9.58828 138.459C9.10667 138.459 8.65003 138.57 8.23336 138.755L-13.7982 100.7ZM62.1875 144.417C63.0119 143.821 63.5605 142.856 63.5605 141.755C63.5605 140.656 63.0119 139.692 62.1875 139.091L84.258 100.969C84.6827 101.173 85.1553 101.293 85.6609 101.293C87.3875 101.293 88.7934 99.9617 88.9353 98.2739H133.053C133.194 99.9617 134.598 101.293 136.329 101.293C136.833 101.293 137.305 101.173 137.734 100.969L159.76 139.015C158.875 139.607 158.29 140.611 158.29 141.755C158.29 142.896 158.875 143.902 159.76 144.494L137.734 182.538C137.305 182.334 136.833 182.217 136.329 182.217C134.599 182.217 133.194 183.551 133.053 185.235H88.9363C88.7934 183.551 87.3875 182.217 85.6619 182.217C85.1563 182.217 84.6837 182.334 84.259 182.538L62.1875 144.417ZM213.712 226.339C213.263 226.113 212.766 225.971 212.233 225.971C210.501 225.971 209.096 227.304 208.956 228.992H164.838C164.695 227.304 163.292 225.971 161.562 225.971C161.088 225.971 160.643 226.076 160.236 226.253L138.212 188.213C139.07 187.617 139.635 186.631 139.635 185.514C139.635 184.392 139.07 183.404 138.214 182.808L160.245 144.758C160.658 144.942 161.113 145.049 161.596 145.049C163.326 145.049 164.729 143.721 164.871 142.029L208.984 142.029C209.13 143.721 210.534 145.049 212.265 145.049C212.788 145.049 213.281 144.916 213.717 144.697L235.788 182.808C234.927 183.404 234.362 184.392 234.362 185.514C234.362 186.631 234.926 187.617 235.788 188.213L213.712 226.339Z" fill="white"/>
<path d="M329.971 130.644C329.618 130.471 329.228 130.368 328.807 130.368C327.422 130.368 326.301 131.429 326.187 132.782H290.898C290.785 131.43 289.66 130.368 288.276 130.368C287.889 130.368 287.524 130.454 287.195 130.6L269.571 100.161C270.256 99.6842 270.707 98.8941 270.707 97.9984C270.707 97.1037 270.256 96.3136 269.571 95.8373L287.202 65.3879C287.539 65.5403 287.911 65.632 288.303 65.632C289.687 65.632 290.812 64.5689 290.926 63.2149H326.217C326.33 64.5679 327.452 65.632 328.835 65.632C329.249 65.632 329.63 65.5323 329.978 65.363L347.625 95.8373C346.937 96.3136 346.484 97.1037 346.484 97.9984C346.484 98.8931 346.937 99.6833 347.625 100.161L329.971 130.644ZM286.815 60.8206C286.117 61.2939 285.659 62.093 285.659 62.9957C285.659 63.9053 286.117 64.7024 286.815 65.1757L269.186 95.6231C268.846 95.4627 268.467 95.365 268.065 95.365C266.681 95.365 265.559 96.4312 265.444 97.7802L230.154 97.7802C230.04 96.4312 228.916 95.365 227.53 95.365C227.128 95.365 226.75 95.4627 226.41 95.6231L208.762 65.1448C209.438 64.6685 209.881 63.8884 209.881 62.9966C209.881 62.1119 209.438 61.3278 208.762 60.8525L226.41 30.3751C226.75 30.5356 227.128 30.6312 227.53 30.6312C228.916 30.6312 230.04 29.5691 230.154 28.2151L265.443 28.2151C265.558 29.5681 266.68 30.6312 268.064 30.6312C268.466 30.6312 268.845 30.5356 269.185 30.3751L286.815 60.8206ZM269.185 165.625C268.845 165.461 268.466 165.368 268.064 165.368C266.68 165.368 265.558 166.432 265.443 167.783H230.154C230.04 166.433 228.916 165.368 227.53 165.368C227.128 165.368 226.75 165.461 226.41 165.625L208.755 135.133C209.417 134.653 209.854 133.88 209.854 132.999C209.854 132.118 209.417 131.347 208.755 130.868L226.41 100.376C226.75 100.537 227.128 100.636 227.53 100.636C228.916 100.636 230.04 99.5687 230.154 98.2176L265.443 98.2176C265.558 99.5677 266.68 100.636 268.064 100.636C268.466 100.636 268.845 100.537 269.185 100.376L286.807 130.808C286.099 131.283 285.631 132.085 285.631 132.999C285.631 133.914 286.099 134.718 286.807 135.191L269.185 165.625ZM389.659 95.3641C388.276 95.3641 387.153 96.4302 387.041 97.7792H351.751C351.639 96.4302 350.513 95.3641 349.129 95.3641C348.726 95.3641 348.347 95.4617 348.007 95.6221L330.36 65.1438C331.035 64.6675 331.479 63.8874 331.479 62.9957C331.479 62.1109 331.035 61.3268 330.36 60.8515L348.007 30.3742C348.347 30.5346 348.726 30.6302 349.129 30.6302C350.588 30.6302 351.772 29.4496 351.772 27.9949C351.772 26.5402 350.589 25.3585 349.129 25.3585C347.669 25.3585 346.484 26.5402 346.484 27.9949C346.484 28.8906 346.937 29.6797 347.625 30.1569L329.978 60.6303C329.63 60.4639 329.25 60.3593 328.835 60.3593C327.452 60.3593 326.33 61.4224 326.217 62.7784H290.926C290.812 61.4234 289.687 60.3593 288.303 60.3593C287.911 60.3593 287.539 60.453 287.202 60.6064L269.571 30.156C270.256 29.6797 270.707 28.8906 270.707 27.9939C270.707 26.5392 269.522 25.3575 268.064 25.3575C266.68 25.3575 265.558 26.4256 265.443 27.7737L230.154 27.7737C230.04 26.4256 228.916 25.3575 227.53 25.3575C227.128 25.3575 226.75 25.4542 226.41 25.6156L208.773 -4.84383C209.46 -5.32107 209.908 -6.11017 209.908 -7.00589C209.908 -7.90459 209.46 -8.69374 208.773 -9.16801L226.41 -39.6324C226.75 -39.47 227.128 -39.3733 227.53 -39.3733C228.991 -39.3733 230.175 -40.556 230.175 -42.0087C230.175 -43.4693 228.99 -44.646 227.53 -44.646C226.072 -44.646 224.887 -43.4684 224.887 -42.0087C224.887 -41.115 225.338 -40.3248 226.023 -39.8486L208.387 -9.38518C208.046 -9.54658 207.668 -9.64326 207.266 -9.64326C205.882 -9.64326 204.76 -8.57913 204.647 -7.22609H169.355C169.242 -8.57814 168.117 -9.64326 166.734 -9.64326C166.332 -9.64326 165.953 -9.54658 165.612 -9.38518L147.974 -39.8486C148.661 -40.3238 149.112 -41.115 149.112 -42.0087C149.112 -43.4693 147.927 -44.646 146.468 -44.646C145.009 -44.646 143.825 -43.4684 143.825 -42.0087C143.825 -40.556 145.009 -39.3733 146.468 -39.3733C146.87 -39.3733 147.249 -39.47 147.591 -39.6324L165.225 -9.16801C164.541 -8.69475 164.091 -7.90559 164.091 -7.00589C164.091 -6.11116 164.541 -5.32107 165.225 -4.84383L147.591 25.6156C147.249 25.4542 146.869 25.3575 146.468 25.3575C145.084 25.3575 143.961 26.4256 143.848 27.7737H108.557C108.444 26.4256 107.319 25.3575 105.935 25.3575C104.476 25.3575 103.293 26.5392 103.293 27.9939C103.293 28.8896 103.742 29.6787 104.428 30.156L86.7849 60.6293C86.4352 60.4629 86.0535 60.3583 85.6428 60.3583C84.2589 60.3583 83.1328 61.4214 83.0199 62.7774H47.7299C47.617 61.4224 46.4919 60.3583 45.11 60.3583C44.7153 60.3583 44.3456 60.452 44.0089 60.6054L26.3779 30.155C27.0643 29.6787 27.514 28.8896 27.514 27.9929C27.514 26.5382 26.3309 25.3565 24.8701 25.3565C23.4092 25.3565 22.2272 26.5382 22.2272 27.9929C22.2272 29.4475 23.4092 30.6282 24.8701 30.6282C25.2717 30.6282 25.6514 30.5326 25.9922 30.3722L43.6212 60.8196C42.9227 61.2929 42.4661 62.092 42.4661 62.9947C42.4661 63.9043 42.9227 64.7014 43.6212 65.1747L25.9922 95.6221C25.6514 95.4617 25.2717 95.3641 24.8701 95.3641C23.4862 95.3641 22.3621 96.4302 22.2492 97.7792H-13.0418C-13.1538 96.4302 -14.2779 95.3641 -15.6628 95.3641C-17.1216 95.3641 -18.3057 96.5437 -18.3057 97.9994C-18.3057 99.4551 -17.1226 100.637 -15.6628 100.637C-14.2779 100.637 -13.1548 99.5697 -13.0418 98.2186H22.2492C22.3621 99.5687 23.4862 100.637 24.8701 100.637C25.2717 100.637 25.6514 100.538 25.9922 100.377L43.6132 130.809C42.9038 131.284 42.4381 132.086 42.4381 133C42.4381 133.915 42.9048 134.719 43.6132 135.192L25.9922 165.625C25.6514 165.461 25.2717 165.368 24.8701 165.368C23.4092 165.368 22.2272 166.548 22.2272 168.004C22.2272 169.458 23.4092 170.637 24.8701 170.637C26.3299 170.637 27.514 169.458 27.514 168.004C27.514 167.107 27.0633 166.318 26.3789 165.839L44.0009 135.399C44.3306 135.549 44.6963 135.637 45.081 135.637C46.4649 135.637 47.587 134.574 47.7029 133.221H82.9919C83.1058 134.573 84.229 135.637 85.6139 135.637C86.0335 135.637 86.4262 135.532 86.7769 135.356L104.428 165.839C103.742 166.317 103.293 167.106 103.293 168.004C103.293 169.458 104.476 170.637 105.935 170.637C107.319 170.637 108.444 169.574 108.557 168.221H143.848C143.961 169.573 145.084 170.637 146.468 170.637C146.87 170.637 147.249 170.542 147.591 170.379L165.205 200.801C164.485 201.274 164.009 202.081 164.009 203.007C164.009 203.928 164.485 204.733 165.205 205.207L147.591 235.629C147.249 235.468 146.869 235.37 146.468 235.37C145.009 235.37 143.825 236.55 143.825 238.007C143.825 239.462 145.009 240.643 146.468 240.643C147.926 240.643 149.112 239.462 149.112 238.007C149.112 237.111 148.661 236.322 147.975 235.843L165.589 205.417C165.917 205.561 166.275 205.641 166.652 205.641C168.035 205.641 169.159 204.576 169.273 203.226H204.563C204.676 204.575 205.798 205.641 207.182 205.641C207.613 205.641 208.012 205.528 208.37 205.349L226.024 235.843C225.339 236.321 224.888 237.11 224.888 238.007C224.888 239.462 226.073 240.643 227.531 240.643C228.992 240.643 230.176 239.462 230.176 238.007C230.176 236.55 228.991 235.37 227.531 235.37C227.129 235.37 226.751 235.468 226.411 235.629L208.747 205.119C209.4 204.642 209.827 203.877 209.827 203.007C209.827 202.133 209.4 201.366 208.747 200.887L226.411 170.379C226.751 170.542 227.129 170.637 227.531 170.637C228.917 170.637 230.041 169.574 230.155 168.221H265.444C265.559 169.573 266.681 170.637 268.065 170.637C269.523 170.637 270.708 169.458 270.708 168.004C270.708 167.107 270.257 166.318 269.572 165.839L287.196 135.399C287.525 135.549 287.89 135.637 288.277 135.637C289.661 135.637 290.786 134.574 290.899 133.221H326.188C326.302 134.573 327.423 135.637 328.808 135.637C329.229 135.637 329.62 135.532 329.972 135.356L347.625 165.839C346.937 166.317 346.484 167.106 346.484 168.004C346.484 169.458 347.67 170.637 349.129 170.637C350.588 170.637 351.772 169.458 351.772 168.004C351.772 166.548 350.589 165.368 349.129 165.368C348.726 165.368 348.347 165.461 348.007 165.625L330.352 135.133C331.013 134.653 331.45 133.88 331.45 132.999C331.45 132.118 331.014 131.347 330.352 130.868L348.007 100.376C348.347 100.537 348.726 100.636 349.129 100.636C350.513 100.636 351.639 99.5687 351.751 98.2176H387.041C387.153 99.5677 388.276 100.636 389.659 100.636C391.12 100.636 392.302 99.4531 392.302 97.9984C392.302 96.5427 391.12 95.3641 389.659 95.3641ZM207.21 130.367C205.826 130.367 204.704 131.428 204.59 132.781H169.301C169.186 131.429 168.063 130.367 166.68 130.367C166.296 130.367 165.929 130.453 165.599 130.599L147.974 100.159C148.661 99.6832 149.112 98.8931 149.112 97.9974C149.112 97.1027 148.661 96.3126 147.975 95.8363L165.606 65.3869C165.943 65.5393 166.314 65.631 166.707 65.631C168.09 65.631 169.215 64.5679 169.328 63.2139H204.619C204.729 64.5669 205.854 65.631 207.237 65.631C207.65 65.631 208.034 65.5314 208.382 65.362L226.024 95.8363C225.339 96.3126 224.888 97.1027 224.888 97.9974C224.888 98.8921 225.339 99.6822 226.024 100.159L208.373 130.643C208.022 130.471 207.629 130.367 207.21 130.367ZM165.612 -4.6266C165.953 -4.47117 166.332 -4.37059 166.734 -4.37059C168.117 -4.37059 169.241 -5.43762 169.355 -6.79066H204.647C204.76 -5.43863 205.882 -4.37059 207.266 -4.37059C207.668 -4.37059 208.046 -4.47117 208.387 -4.6266L226.023 25.8318C225.338 26.309 224.887 27.0972 224.887 27.9939C224.887 28.8906 225.338 29.6787 226.023 30.156L208.381 60.6293C208.033 60.4629 207.65 60.3583 207.236 60.3583C205.853 60.3583 204.728 61.4214 204.618 62.7774H169.327C169.216 61.4224 168.089 60.3583 166.706 60.3583C166.313 60.3583 165.941 60.452 165.605 60.6054L147.974 30.155C148.661 29.6787 149.112 28.8896 149.112 27.9929C149.112 27.0962 148.661 26.309 147.975 25.8308L165.612 -4.6266ZM104.813 30.3732C105.154 30.5336 105.533 30.6292 105.935 30.6292C107.319 30.6292 108.444 29.5671 108.557 28.2131H143.848C143.961 29.5661 145.084 30.6292 146.468 30.6292C146.87 30.6292 147.249 30.5336 147.591 30.3732L165.22 60.8206C164.521 61.2939 164.064 62.093 164.064 62.9957C164.064 63.9053 164.521 64.7024 165.22 65.1757L147.591 95.6231C147.249 95.4627 146.869 95.365 146.468 95.365C145.084 95.365 143.961 96.4312 143.848 97.7802H108.557C108.444 96.4312 107.319 95.365 105.935 95.365C105.534 95.365 105.155 95.4627 104.813 95.6231L87.1656 65.1448C87.8401 64.6685 88.2837 63.8884 88.2837 62.9966C88.2837 62.1119 87.8401 61.3278 87.1656 60.8525L104.813 30.3732ZM26.3779 100.161C27.0643 99.6842 27.514 98.8941 27.514 97.9984C27.514 97.1037 27.0633 96.3136 26.3789 95.8373L44.0089 65.3879C44.3456 65.5403 44.7153 65.632 45.11 65.632C46.4919 65.632 47.617 64.5689 47.7299 63.2149H83.0199C83.1318 64.5679 84.2589 65.632 85.6428 65.632C86.0535 65.632 86.4352 65.5323 86.7849 65.363L104.428 95.8373C103.742 96.3136 103.293 97.1037 103.293 97.9984C103.293 98.8931 103.742 99.6833 104.428 100.161L86.7769 130.644C86.4262 130.471 86.0335 130.368 85.6139 130.368C84.23 130.368 83.1068 131.429 82.9919 132.782H47.7029C47.587 131.43 46.4649 130.368 45.081 130.368C44.6963 130.368 44.3306 130.454 44.0009 130.6L26.3779 100.161ZM87.1576 135.134C87.8211 134.654 88.2588 133.881 88.2588 133C88.2588 132.119 87.8211 131.348 87.1576 130.869L104.813 100.377C105.154 100.538 105.533 100.637 105.935 100.637C107.319 100.637 108.444 99.5697 108.557 98.2186H143.848C143.961 99.5687 145.084 100.637 146.468 100.637C146.87 100.637 147.249 100.538 147.591 100.377L165.211 130.809C164.502 131.284 164.036 132.086 164.036 133C164.036 133.915 164.501 134.719 165.211 135.192L147.591 165.625C147.249 165.461 146.869 165.368 146.468 165.368C145.084 165.368 143.961 166.432 143.848 167.783H108.557C108.444 166.433 107.319 165.368 105.935 165.368C105.534 165.368 105.155 165.461 104.813 165.625L87.1576 135.134ZM208.369 200.659C208.012 200.48 207.612 200.371 207.181 200.371C205.797 200.371 204.675 201.434 204.562 202.788H169.272C169.159 201.435 168.035 200.371 166.651 200.371C166.274 200.371 165.916 200.45 165.588 200.593L147.973 170.165C148.66 169.687 149.111 168.898 149.111 168.004C149.111 167.107 148.66 166.318 147.974 165.839L165.598 135.399C165.928 135.549 166.294 135.637 166.679 135.637C168.062 135.637 169.185 134.574 169.3 133.221H204.589C204.703 134.573 205.825 135.637 207.209 135.637C207.629 135.637 208.022 135.532 208.371 135.356L226.022 165.839C225.337 166.317 224.886 167.106 224.886 168.004C224.886 168.898 225.337 169.687 226.022 170.165L208.369 200.659Z" fill="white"/>
<path d="M197.037 94.9536H190.054V87.9502H183.944V94.9536H176.96V101.081H183.944V108.084H190.054V101.081H197.037V94.9536Z" fill="white"/>
<path d="M314.268 84.6861L311.783 89.0007C311.346 88.8378 310.844 89.0077 310.603 89.4273L309.808 90.8122L311.498 91.7904L312.295 90.4066C312.534 89.9869 312.429 89.4673 312.071 89.1675L315.12 83.8707L314.268 84.6861Z" fill="white"/>
<path d="M305.674 92.5349L299.243 103.704L297.689 102.807C297.531 102.714 297.33 102.77 297.236 102.93C297.146 103.089 297.199 103.291 297.357 103.384L306.863 108.888C307.02 108.979 307.225 108.926 307.315 108.765C307.408 108.608 307.355 108.402 307.193 108.31L305.642 107.413L312.073 96.2419C312.897 94.8111 312.405 92.9735 310.98 92.1472L309.755 91.4387C308.33 90.6124 306.495 91.103 305.674 92.5349ZM310.646 92.7227C311.757 93.3662 312.14 94.7951 311.498 95.9082L305.066 107.078L299.816 104.039L300.495 102.861L303.299 104.482C303.378 104.529 303.481 104.502 303.526 104.419C303.572 104.341 303.545 104.24 303.463 104.193L300.662 102.57L301.171 101.688L302.51 102.463C302.587 102.509 302.691 102.482 302.736 102.402C302.784 102.321 302.756 102.219 302.677 102.173L301.336 101.397L301.846 100.514L303.185 101.29C303.263 101.336 303.366 101.309 303.411 101.229C303.456 101.149 303.431 101.047 303.352 101.001L302.009 100.225L302.52 99.3425L305.322 100.965C305.403 101.011 305.504 100.984 305.549 100.904C305.594 100.824 305.567 100.722 305.488 100.675L302.685 99.0537L303.194 98.1694L304.536 98.9448C304.616 98.9897 304.715 98.9638 304.76 98.8838C304.807 98.8039 304.782 98.702 304.703 98.655L303.359 97.8806L303.871 96.9983L305.208 97.7727C305.287 97.8197 305.393 97.7927 305.436 97.7128C305.482 97.6338 305.453 97.5309 305.373 97.4849L304.035 96.7076L304.543 95.8243L307.346 97.447C307.425 97.4929 307.529 97.466 307.572 97.385C307.62 97.3061 307.593 97.2042 307.511 97.1582L304.709 95.5345L305.215 94.6522L306.557 95.4266C306.638 95.4745 306.736 95.4466 306.786 95.3676C306.83 95.2867 306.804 95.1848 306.723 95.1388L305.383 94.3634L305.891 93.4801L307.231 94.2555C307.31 94.3025 307.413 94.2755 307.46 94.1946C307.505 94.1156 307.476 94.0127 307.397 93.9667L306.057 93.1914L306.247 92.8616C306.356 92.6688 306.498 92.5069 306.651 92.36L309.366 93.9318C309.447 93.9777 309.55 93.9507 309.594 93.8708C309.641 93.7919 309.614 93.689 309.531 93.643L306.917 92.1292C307.637 91.6196 308.612 91.5377 309.422 92.0083L310.646 92.7227Z" fill="white"/>
<path d="M298.561 107.387C298.399 107.294 298.197 107.351 298.104 107.51C298.012 107.669 298.068 107.872 298.226 107.965L302.472 110.424C302.632 110.515 302.834 110.461 302.925 110.3C303.02 110.142 302.963 109.94 302.808 109.846L301.739 109.229L302.884 107.238L300.772 106.015L299.628 108.006L298.561 107.387Z" fill="white"/>
<path d="M123.433 132.091C123.548 132.091 123.659 132.148 123.724 132.243L124.634 133.534L124.95 132.356L126.075 128.136C126.117 127.98 126.259 127.87 126.422 127.87C126.586 127.87 126.73 127.98 126.773 128.136L128.674 135.274L129.449 132.357L129.962 130.439C129.998 130.304 130.108 130.202 130.246 130.176C130.384 130.153 130.522 130.21 130.602 130.323L131.85 132.089H136.766C137.749 129.917 137.353 127.271 135.571 125.487C133.277 123.184 129.558 123.184 127.262 125.487C124.968 123.184 121.25 123.184 118.955 125.487C117.172 127.272 116.777 129.918 117.76 132.089H123.433V132.091Z" fill="white"/>
<path d="M131.664 132.813C131.549 132.813 131.439 132.757 131.369 132.661L130.461 131.37L130.147 132.546L129.018 136.767C128.978 136.926 128.833 137.035 128.673 137.035C128.508 137.035 128.365 136.927 128.325 136.767L126.422 129.63L125.647 132.547L125.127 134.467C125.091 134.602 124.979 134.703 124.842 134.727C124.704 134.752 124.566 134.694 124.487 134.581L123.244 132.815H118.152C118.377 133.171 118.643 133.51 118.955 133.821L127.262 142.152L135.571 133.821C135.883 133.51 136.15 133.171 136.374 132.815H131.664V132.813Z" fill="white"/>
<path d="M72.3214 103.093H70.1145V100.879H68.1836V103.093H65.9736V105.029H68.1836V107.244H70.1145V105.029H72.3214V103.093Z" fill="white"/>
<path d="M71.5372 95.911C73.1523 93.1032 72.1888 89.5011 69.393 87.8813C66.5953 86.2616 63.0034 87.2269 61.3873 90.0346C59.8968 92.6216 60.6022 95.884 62.9147 97.6496L62.0071 99.2263L61.6225 99.0035C61.5986 98.9905 61.5697 98.9975 61.5547 99.0205L57.5474 105.982C57.5355 106.005 57.5414 106.036 57.5673 106.048L59.6198 107.238C59.6418 107.25 59.6746 107.241 59.6846 107.218L63.6909 100.259C63.7079 100.236 63.6989 100.206 63.676 100.193L63.2884 99.9698L64.1971 98.391C66.8772 99.5201 70.0476 98.4979 71.5372 95.911ZM62.6687 90.776C63.8772 88.6777 66.5594 87.9573 68.6507 89.1673C70.7431 90.3784 71.4605 93.0722 70.2529 95.1686C69.0483 97.2659 66.3621 97.9873 64.2718 96.7763C62.1824 95.5642 61.4621 92.8724 62.6687 90.776Z" fill="white"/>
<path d="M251.921 140.813H243.41C243.221 140.813 243.069 140.661 243.069 140.471C243.069 140.282 243.22 140.131 243.41 140.131H251.921C252.11 140.131 252.261 140.281 252.261 140.471C252.261 140.66 252.11 140.813 251.921 140.813Z" fill="white"/>
<path d="M248.706 136.601H246.624C246.434 136.601 246.28 136.451 246.28 136.261C246.28 136.073 246.433 135.919 246.624 135.919H248.706C248.895 135.919 249.047 136.073 249.047 136.261C249.047 136.451 248.895 136.601 248.706 136.601Z" fill="white"/>
<path d="M250.792 138.707H244.537C244.351 138.707 244.197 138.555 244.197 138.367C244.197 138.178 244.351 138.025 244.537 138.025H250.792C250.979 138.025 251.132 138.177 251.132 138.367C251.132 138.555 250.979 138.707 250.792 138.707Z" fill="white"/>
<path d="M251.921 125.916H243.41C243.221 125.916 243.069 125.765 243.069 125.575C243.069 125.387 243.22 125.233 243.41 125.233H251.921C252.11 125.233 252.261 125.386 252.261 125.575C252.261 125.764 252.11 125.916 251.921 125.916Z" fill="white"/>
<path d="M248.706 130.126H246.624C246.434 130.126 246.28 129.973 246.28 129.784C246.28 129.595 246.433 129.444 246.624 129.444H248.706C248.895 129.444 249.047 129.595 249.047 129.784C249.047 129.972 248.895 130.126 248.706 130.126Z" fill="white"/>
<path d="M250.792 128.02H244.537C244.351 128.02 244.197 127.869 244.197 127.68C244.197 127.491 244.351 127.338 244.537 127.338H250.792C250.979 127.338 251.132 127.49 251.132 127.68C251.132 127.869 250.979 128.02 250.792 128.02Z" fill="white"/>
<path d="M248.626 131.617C248.994 131.872 249.369 132.13 249.743 132.395C252.615 130.303 255.144 127.874 255.144 123.646C255.144 123.269 254.839 122.964 254.464 122.964C254.088 122.964 253.782 123.269 253.782 123.646C253.782 127.417 251.386 129.555 248.555 131.57C248.581 131.585 248.603 131.601 248.626 131.617Z" fill="white"/>
<path d="M246.703 134.428C246.334 134.174 245.959 133.916 245.586 133.65C242.714 135.742 240.185 138.173 240.185 142.399C240.185 142.776 240.489 143.082 240.864 143.082C241.242 143.082 241.544 142.776 241.544 142.399C241.544 138.629 243.941 136.49 246.774 134.475C246.749 134.46 246.725 134.444 246.703 134.428Z" fill="white"/>
<path d="M254.464 143.082C254.089 143.082 253.783 142.775 253.783 142.398C253.783 138.069 250.624 135.891 247.278 133.584C243.792 131.179 240.185 128.693 240.185 123.646C240.185 123.269 240.489 122.964 240.864 122.964C241.242 122.964 241.544 123.269 241.544 123.646C241.544 127.977 244.706 130.154 248.051 132.461C251.536 134.865 255.145 137.352 255.145 142.398C255.144 142.776 254.84 143.082 254.464 143.082Z" fill="white"/>
<path d="M250.074 63.7339H247.807V61.4597H245.822V63.7339H243.555V65.7223H245.822V67.9975H247.807V65.7223H250.074V63.7339Z" fill="white"/>
<path d="M246.814 59.6222C244.008 59.6222 241.722 61.9134 241.722 64.7282C241.722 67.5429 244.008 69.8331 246.814 69.8331C249.62 69.8331 251.904 67.5429 251.904 64.7282C251.905 61.9134 249.621 59.6222 246.814 59.6222ZM246.814 69.2715C244.311 69.2715 242.286 67.2372 242.286 64.7282C242.286 62.2191 244.311 60.1848 246.814 60.1848C249.317 60.1848 251.346 62.2191 251.346 64.7282C251.346 67.2372 249.317 69.2715 246.814 69.2715Z" fill="white"/>
<path d="M254.392 58.1723H239.239C237.885 58.1723 236.777 59.2824 236.777 60.6414V68.8178C236.777 70.1748 237.884 71.2859 239.239 71.2859H254.392C255.746 71.2859 256.854 70.1758 256.854 68.8178V60.6414C256.853 59.2824 255.746 58.1723 254.392 58.1723ZM246.814 70.4166C243.687 70.4166 241.144 67.8656 241.144 64.7291C241.144 61.5916 243.688 59.0416 246.814 59.0416C249.941 59.0416 252.486 61.5926 252.486 64.7291C252.487 67.8656 249.942 70.4166 246.814 70.4166Z" fill="white"/>
<path d="M242.584 57.8636V57.7567C242.584 56.6945 243.443 55.8322 244.501 55.8322H249.13C250.187 55.8322 251.047 56.6945 251.047 57.7567V57.8636H252.131V57.7567C252.131 56.096 250.785 54.7451 249.13 54.7451H244.501C242.847 54.7451 241.5 56.096 241.5 57.7567V57.8636H242.584Z" fill="white"/>
<path d="M131.049 63.8733H129.452L128.479 62.4934C128.416 62.4045 128.306 62.3595 128.201 62.3795C128.092 62.3985 128.008 62.4784 127.977 62.5834L127.576 64.0852L126.971 66.3624L125.482 60.7828C125.45 60.6599 125.337 60.574 125.212 60.574C125.083 60.574 124.972 60.6599 124.939 60.7828L124.058 64.0842L123.811 65.0035L123.1 63.9942C123.047 63.9183 122.964 63.8733 122.871 63.8733H121.128V64.4389H122.725L123.696 65.8188C123.758 65.9097 123.867 65.9547 123.975 65.9347C124.082 65.9147 124.167 65.8358 124.196 65.7309L124.603 64.2291L125.212 61.9499L126.696 67.5295C126.729 67.6534 126.84 67.7383 126.97 67.7383C127.098 67.7383 127.206 67.6534 127.239 67.5295L128.121 64.2291L128.366 63.3108L129.079 64.32C129.132 64.3949 129.218 64.4389 129.309 64.4389H131.049V63.8733Z" fill="white"/>
<path d="M130.715 55.2102H129.174V56.5352H130.715C131.442 56.5352 132.036 57.1307 132.036 57.8621V70.4511C132.036 71.1815 131.442 71.7771 130.715 71.7771H121.463C120.736 71.7771 120.142 71.1815 120.142 70.4511V57.8621C120.142 57.1307 120.736 56.5352 121.463 56.5352H123.006V55.2102H121.463C120.007 55.2102 118.823 56.3983 118.823 57.8621V70.4511C118.823 71.913 120.007 73.102 121.463 73.102H130.715C132.172 73.102 133.358 71.913 133.358 70.4511V57.8621C133.358 56.3983 132.172 55.2102 130.715 55.2102Z" fill="white"/>
<path d="M128.156 54.5308H127.686C127.686 53.6475 126.97 52.928 126.089 52.928C125.207 52.928 124.49 53.6475 124.49 54.5308H124.025C123.837 54.5308 123.692 54.6807 123.692 54.8625V56.8829C123.692 57.0658 123.837 57.2126 124.025 57.2126H128.155C128.337 57.2126 128.483 57.0658 128.483 56.8829V54.8625C128.485 54.6807 128.338 54.5308 128.156 54.5308ZM126.09 53.5915C126.606 53.5915 127.027 54.0132 127.027 54.5308H125.15C125.151 54.0132 125.571 53.5915 126.09 53.5915Z" fill="white"/>
<path d="M190.475 173.478H200.523C200.523 170.438 198.64 169.1 195.98 168.64C195.304 169.296 194.381 169.701 193.363 169.701C192.347 169.701 191.423 169.297 190.744 168.64C189.585 168.841 188.574 169.208 187.801 169.812C189.195 170.666 190.091 171.888 190.475 173.478Z" fill="white"/>
<path d="M189.693 163.889C189.63 164.163 189.595 164.451 189.595 164.744C189.595 166.833 191.282 168.525 193.362 168.525C195.445 168.525 197.131 166.833 197.131 164.744C197.131 164.451 197.097 164.163 197.033 163.889H189.693Z" fill="white"/>
<path d="M195.408 159.368H191.316C190.198 159.368 189.283 160.286 189.283 161.407L189.696 163.459H197.029L197.442 161.407C197.442 160.286 196.528 159.368 195.408 159.368ZM193.362 163.02C192.478 163.02 191.76 162.302 191.76 161.416C191.76 160.528 192.479 159.81 193.362 159.81C194.245 159.81 194.963 160.529 194.963 161.416C194.964 162.301 194.245 163.02 193.362 163.02Z" fill="white"/>
<path d="M194.404 161.018H193.756V160.372C193.756 160.286 193.686 160.216 193.603 160.216H193.125C193.039 160.216 192.969 160.286 192.969 160.372V161.018H192.324C192.238 161.018 192.166 161.09 192.166 161.176V161.652C192.166 161.738 192.238 161.81 192.324 161.81H192.969V162.458C192.969 162.544 193.039 162.616 193.125 162.616H193.603C193.686 162.616 193.756 162.545 193.756 162.458V161.81H194.404C194.49 161.81 194.559 161.739 194.559 161.652V161.176C194.56 161.09 194.49 161.018 194.404 161.018Z" fill="white"/>
<path d="M184.245 169.25C183.38 170.087 182.202 170.603 180.906 170.603C179.609 170.603 178.432 170.086 177.568 169.25C174.18 169.836 171.776 171.544 171.776 175.419H190.034C190.036 171.543 187.633 169.835 184.245 169.25Z" fill="white"/>
<path d="M176.227 163.191C176.146 163.543 176.101 163.909 176.101 164.283C176.101 166.946 178.251 169.104 180.905 169.104C183.559 169.104 185.711 166.946 185.711 164.283C185.711 163.909 185.668 163.543 185.585 163.191H176.227Z" fill="white"/>
<path d="M183.517 157.429H178.297C176.871 157.429 175.707 158.599 175.707 160.028L176.229 162.645H185.582L186.108 160.028C186.108 158.598 184.942 157.429 183.517 157.429ZM180.905 162.084C179.778 162.084 178.864 161.168 178.864 160.037C178.864 158.907 179.778 157.989 180.905 157.989C182.032 157.989 182.948 158.906 182.948 160.037C182.948 161.167 182.032 162.084 180.905 162.084Z" fill="white"/>
<path d="M182.233 159.531H181.412V158.707C181.412 158.596 181.321 158.506 181.211 158.506H180.605C180.497 158.506 180.406 158.596 180.406 158.707V159.531H179.581C179.472 159.531 179.382 159.622 179.382 159.731V160.34C179.382 160.45 179.472 160.54 179.581 160.54H180.406V161.366C180.406 161.477 180.497 161.567 180.605 161.567H181.211C181.321 161.567 181.412 161.477 181.412 161.366V160.54H182.233C182.341 160.54 182.434 160.45 182.434 160.34V159.731C182.434 159.622 182.341 159.531 182.233 159.531Z" fill="white"/>
</g>
</svg>
