<svg width="275" height="516" viewBox="0 0 275 516" fill="none" xmlns="http://www.w3.org/2000/svg">
<g opacity="0.15">
<g opacity="0.15">
<path d="M377.587 263.741V219.642L339.508 197.598V153.497L301.43 131.455V87.3546L263.352 65.3091L262.785 65.3081L224.99 87.1907L187.197 65.3081L186.63 65.3091L148.693 87.2737L148.552 87.3546V131.456L110.613 153.417L110.471 153.498V197.599L72.5344 219.563L72.393 219.643V263.742L34.4569 285.706L34.3135 285.787V330.213L72.392 352.26V396.359L110.47 418.404V462.503L148.552 484.548V528.647L186.63 550.692H187.197L224.99 528.812L262.785 550.692H263.352L301.289 528.728L301.43 528.648V484.549L339.368 462.586L339.508 462.505V418.406L377.446 396.443L377.587 396.362V352.263L415.524 330.297L415.665 330.216V285.786L377.587 263.741ZM377.02 219.971V263.74L339.224 285.622L301.429 263.74V219.971L339.224 198.089L377.02 219.971ZM186.63 286.114V329.886L148.835 351.768L111.037 329.886V286.114L148.835 264.233L186.63 286.114ZM149.12 263.74V219.971L186.912 198.089L224.708 219.971V263.74L186.912 285.622L149.12 263.74ZM149.12 352.259L186.912 330.377L224.708 352.259V396.029L186.913 417.911L149.119 396.029L149.12 352.259ZM187.198 329.881V286.116L224.991 264.233L262.786 286.116V329.881L224.991 351.767L187.198 329.881ZM225.274 263.74V219.971L263.068 198.089L300.864 219.971V263.74L263.07 285.622L225.274 263.74ZM225.274 352.259L263.068 330.377L300.864 352.259V396.029L263.068 417.911L225.274 396.029V352.259ZM263.352 329.885V286.113L301.147 264.232L338.942 286.113V329.885L301.149 351.767L263.352 329.885ZM338.941 153.827V197.596L301.148 219.479L263.352 197.596V153.827L301.147 131.946L338.941 153.827ZM225.274 87.6843L263.068 65.8017L300.864 87.6843V131.454L263.068 153.334L225.274 131.454V87.6843ZM262.785 153.825V197.598L224.99 219.479L187.197 197.598V153.825L224.99 131.946L262.785 153.825ZM149.12 87.6843L186.912 65.8017L224.708 87.6843V131.454L186.914 153.334L149.12 131.453V87.6843ZM111.037 153.827L148.835 131.946L186.63 153.827V197.596L148.835 219.479L111.037 197.596V153.827ZM72.9599 219.971L110.754 198.089L148.553 219.971V263.74L110.756 285.622L72.9599 263.74V219.971ZM34.8814 329.881V286.116L72.6739 264.233L110.471 286.116V329.881L72.6739 351.767L34.8814 329.881ZM72.9599 396.029V352.259L110.756 330.377L148.553 352.259V396.029L110.756 417.911L72.9599 396.029ZM111.037 462.171V418.402L148.835 396.519L186.63 418.402V462.171L148.835 484.054L111.037 462.171ZM224.707 528.315L186.911 550.197L149.119 528.315V484.545L186.911 462.666L224.707 484.545V528.315ZM187.198 462.175V418.402L224.991 396.519L262.786 418.402V462.175L224.991 484.055L187.198 462.175ZM300.864 528.315L263.07 550.197L225.274 528.315V484.545L263.068 462.666L300.864 484.545V528.315ZM338.941 462.171L301.148 484.054L263.352 462.171V418.402L301.147 396.519L338.942 418.402L338.941 462.171ZM377.02 396.029L339.227 417.911L301.43 396.029V352.259L339.225 330.377L377.021 352.259V396.029H377.02ZM415.097 329.881L377.305 351.767L339.508 329.881V286.116L377.304 264.233L415.098 286.116L415.097 329.881Z" fill="#2DAAAE"/>
<path opacity="0.5" d="M230.144 90.5031L263.068 71.4402L295.994 90.5031V128.633L263.068 147.695L230.144 128.633V90.5031Z" fill="#2DAAAE"/>
<path opacity="0.4" d="M268.221 156.647L301.147 137.585L334.072 156.647V194.777L301.147 213.84L268.221 194.777V156.647Z" fill="#2DAAAE"/>
<path opacity="0.8" d="M230.144 222.792L263.068 203.727L295.994 222.792V260.92L263.068 279.984L230.144 260.92V222.792Z" fill="#2DAAAE"/>
<path opacity="0.4" d="M153.986 90.5031L186.911 71.4402L219.836 90.5031V128.633L186.911 147.695L153.986 128.633V90.5031Z" fill="#2DAAAE"/>
<path opacity="0.4" d="M153.986 222.792L186.911 203.727L219.836 222.792V260.92L186.911 279.984L153.986 260.92V222.792Z" fill="#2DAAAE"/>
<path opacity="0.8" d="M77.8281 222.792L110.756 203.727L143.681 222.792V260.92L110.756 279.984L77.8281 260.92V222.792Z" fill="#2DAAAE"/>
<path opacity="0.4" d="M39.7524 288.934L72.6738 269.872L105.602 288.934V327.062L72.6738 346.128L39.7524 327.062V288.934Z" fill="#2DAAAE"/>
<path opacity="0.8" d="M77.8281 355.078L110.756 336.015L143.681 355.078V393.208L110.756 412.272L77.8281 393.208V355.078Z" fill="#2DAAAE"/>
<path opacity="0.5" d="M115.909 156.647L148.835 137.585L181.759 156.647V194.777L148.835 213.84L115.909 194.777V156.647Z" fill="#2DAAAE"/>
<path opacity="0.8" d="M230.144 355.078L263.068 336.015L295.994 355.078V393.208L263.068 412.272L230.144 393.208V355.078Z" fill="#2DAAAE"/>
<path opacity="0.5" d="M192.065 288.934L224.99 269.872L257.915 288.934V327.062L224.99 346.128L192.065 327.062V288.934Z" fill="#2DAAAE"/>
<path opacity="0.4" d="M268.221 421.223L301.147 402.158L334.072 421.223V459.352L301.147 478.415L268.221 459.352V421.223Z" fill="#2DAAAE"/>
<path opacity="0.5" d="M230.144 487.365L263.068 468.305L295.994 487.365V525.495L263.068 544.559L230.144 525.495V487.365Z" fill="#2DAAAE"/>
<path opacity="0.4" d="M153.986 355.078L186.911 336.015L219.836 355.078V393.208L186.911 412.272L153.986 393.208V355.078Z" fill="#2DAAAE"/>
<path opacity="0.4" d="M153.986 487.365L186.911 468.305L219.836 487.365V525.495L186.911 544.559L153.986 525.495V487.365Z" fill="#2DAAAE"/>
<path opacity="0.5" d="M115.909 421.223L148.835 402.158L181.759 421.223V459.352L148.835 478.415L115.909 459.352V421.223Z" fill="#2DAAAE"/>
</g>
<path opacity="0.2" d="M165.025 522.484C165.285 521.957 165.444 521.368 165.444 520.739C165.444 518.662 163.848 516.977 161.82 516.807V463.868C163.848 463.695 165.444 462.009 165.444 459.933C165.444 459.357 165.314 458.808 165.093 458.311L210.758 431.87C211.473 432.899 212.659 433.576 214.001 433.576C215.344 433.576 216.526 432.899 217.243 431.873L262.926 458.322C262.695 458.828 262.56 459.386 262.56 459.973C262.56 462.049 264.154 463.737 266.183 463.908V516.847C264.154 517.017 262.56 518.705 262.56 520.779C262.56 521.395 262.707 521.973 262.963 522.494L217.243 548.965C216.526 547.935 215.344 547.26 214.001 547.26C212.659 547.26 211.473 547.935 210.758 548.965L165.025 522.484ZM269.778 457.745C269.068 456.693 267.875 456.013 266.508 456.013C265.152 456.013 263.953 456.694 263.245 457.745L217.565 431.296C217.809 430.786 217.955 430.219 217.955 429.612C217.955 427.538 216.355 425.85 214.33 425.682V372.737C216.354 372.566 217.955 370.883 217.955 368.802C217.955 368.201 217.809 367.633 217.565 367.121L263.288 340.649C264.006 341.661 265.177 342.325 266.509 342.325C267.843 342.325 269.017 341.661 269.732 340.649L315.455 367.121C315.21 367.633 315.069 368.201 315.069 368.802C315.069 370.883 316.667 372.567 318.694 372.737V425.682C316.667 425.85 315.069 427.538 315.069 429.612C315.069 430.219 315.21 430.786 315.455 431.296L269.778 457.745ZM112.549 431.297C112.789 430.787 112.933 430.22 112.933 429.613C112.933 427.539 111.334 425.851 109.312 425.683V372.738C111.333 372.567 112.933 370.884 112.933 368.803C112.933 368.202 112.789 367.634 112.549 367.122L158.296 340.632C159.011 341.63 160.171 342.284 161.493 342.284C162.812 342.284 163.968 341.63 164.689 340.632L210.432 367.122C210.191 367.634 210.043 368.202 210.043 368.803C210.043 370.884 211.643 372.568 213.672 372.738V425.683C211.644 425.851 210.043 427.539 210.043 429.613C210.043 430.22 210.19 430.787 210.432 431.297L164.777 457.731C164.069 456.668 162.863 455.968 161.493 455.968C160.121 455.968 158.913 456.667 158.205 457.731L112.549 431.297ZM217.955 612.031C217.955 609.957 216.355 608.271 214.33 608.1V555.158C216.354 554.99 217.955 553.3 217.955 551.224C217.955 550.621 217.809 550.053 217.565 549.545L263.288 523.068C264.006 524.082 265.177 524.747 266.509 524.747C267.843 524.747 269.017 524.082 269.732 523.068L315.455 549.545C315.21 550.053 315.069 550.621 315.069 551.224C315.069 553.414 316.835 555.189 319.025 555.189C321.205 555.189 322.974 553.415 322.974 551.224C322.974 549.039 321.206 547.26 319.025 547.26C317.678 547.26 316.493 547.935 315.776 548.965L270.061 522.494C270.315 521.974 270.466 521.395 270.466 520.779C270.466 518.706 268.869 517.017 266.841 516.847V463.908C268.869 463.737 270.466 462.05 270.466 459.973C270.466 459.386 270.327 458.827 270.097 458.322L315.776 431.87C316.493 432.899 317.677 433.576 319.025 433.576C321.205 433.576 322.974 431.801 322.974 429.612C322.974 427.538 321.378 425.85 319.353 425.682V372.737C321.377 372.566 322.974 370.883 322.974 368.802C322.974 368.201 322.832 367.633 322.59 367.121L368.291 340.665C369.002 341.69 370.184 342.365 371.535 342.365C372.88 342.365 374.064 341.69 374.778 340.665L420.476 367.122C420.233 367.634 420.088 368.202 420.088 368.803C420.088 370.993 421.858 372.773 424.041 372.773C426.224 372.773 428 370.994 428 368.803C428 366.62 426.225 364.839 424.041 364.839C422.699 364.839 421.516 365.518 420.798 366.55L375.101 340.086C375.339 339.576 375.486 339.008 375.486 338.401C375.486 336.327 373.892 334.638 371.862 334.47V281.526C373.892 281.359 375.486 279.673 375.486 277.597C375.486 276.991 375.339 276.425 375.101 275.912L420.798 249.45C421.516 250.482 422.699 251.16 424.041 251.16C426.224 251.16 428 249.38 428 247.191C428 245.002 426.225 243.226 424.041 243.226C421.859 243.226 420.088 245.002 420.088 247.191C420.088 247.797 420.233 248.365 420.476 248.878L374.777 275.333C374.063 274.307 372.879 273.632 371.534 273.632C370.183 273.632 369.001 274.307 368.29 275.333L322.589 248.878C322.831 248.365 322.973 247.798 322.973 247.191C322.973 245.115 321.377 243.433 319.352 243.26V190.318C321.376 190.146 322.973 188.462 322.973 186.387C322.973 184.196 321.205 182.421 319.024 182.421C317.677 182.421 316.492 183.094 315.775 184.128L270.06 157.656C270.314 157.135 270.465 156.559 270.465 155.941C270.465 153.865 268.868 152.179 266.84 152.008V99.0684C268.868 98.8945 270.465 97.2108 270.465 95.1355C270.465 94.544 270.326 93.9874 270.096 93.4798L315.775 67.0308C316.492 68.059 317.676 68.7354 319.024 68.7354C321.204 68.7354 322.973 66.9608 322.973 64.7726C322.973 62.5823 321.205 60.8047 319.024 60.8047C316.835 60.8047 315.068 62.5823 315.068 64.7726C315.068 65.3751 315.209 65.9437 315.454 66.4523L269.778 92.9023C269.068 91.8541 267.875 91.1686 266.508 91.1686C265.152 91.1686 263.953 91.8551 263.245 92.9023L217.565 66.4543C217.809 65.9457 217.955 65.3771 217.955 64.7746C217.955 62.6972 216.355 61.0096 214.33 60.8407L214.331 7.89673C216.354 7.72887 217.955 6.0442 217.955 3.96585C217.955 1.77759 216.184 0 214.001 0C211.817 0 210.043 1.77759 210.043 3.96585C210.043 6.04321 211.643 7.72787 213.672 7.89673L213.671 60.8407C211.643 61.0086 210.042 62.6972 210.042 64.7746C210.042 65.3771 210.189 65.9457 210.431 66.4543L164.776 92.8933C164.068 91.8271 162.862 91.1257 161.492 91.1257C160.12 91.1257 158.912 91.8271 158.204 92.8933L112.548 66.4543C112.788 65.9457 112.932 65.3771 112.932 64.7746C112.932 62.5843 111.163 60.8067 108.977 60.8067C106.797 60.8067 105.028 62.5843 105.028 64.7746C105.028 66.9629 106.796 68.7374 108.977 68.7374C110.325 68.7374 111.507 68.061 112.225 67.0368L157.888 93.4708C157.666 93.9694 157.536 94.515 157.536 95.0945C157.536 97.1709 159.132 98.8535 161.162 99.0264V151.966C159.132 152.136 157.536 153.826 157.536 155.901C157.536 156.532 157.694 157.119 157.954 157.646L112.224 184.129C111.506 183.096 110.324 182.422 108.976 182.422C106.796 182.422 105.027 184.197 105.027 186.388C105.027 188.463 106.622 190.147 108.648 190.319V243.261C106.622 243.434 105.027 245.116 105.027 247.192C105.027 247.798 105.168 248.366 105.409 248.879L59.771 275.299C59.0656 274.22 57.8521 273.507 56.4681 273.507C55.0832 273.507 53.8696 274.221 53.1652 275.299L7.52343 248.879C7.76654 248.366 7.90903 247.799 7.90903 247.192C7.90903 245.003 6.13651 243.227 3.95849 243.227C1.77549 243.227 0.000988201 245.003 0.000988201 247.192C0.000988201 249.381 1.77549 251.161 3.95849 251.161C5.30057 251.161 6.48724 250.483 7.20262 249.456L52.8484 275.883C52.6352 276.373 52.5116 276.907 52.5116 277.475C52.5116 279.549 54.1108 281.231 56.1373 281.407V334.349C54.1118 334.517 52.5116 336.204 52.5116 338.28C52.5116 338.923 52.683 339.523 52.95 340.058L7.20161 366.552C6.48623 365.52 5.29958 364.841 3.9575 364.841C1.7745 364.841 0 366.622 0 368.805C0 370.995 1.7745 372.775 3.9575 372.775C6.13552 372.775 7.90802 370.996 7.90802 368.805C7.90802 368.204 7.76555 367.636 7.52244 367.124L53.2898 340.627C54.0111 341.604 55.1569 342.244 56.4671 342.244C57.7743 342.244 58.9221 341.603 59.6395 340.627L105.408 367.124C105.167 367.636 105.026 368.204 105.026 368.805C105.026 370.886 106.621 372.57 108.647 372.74V425.685C106.621 425.853 105.026 427.541 105.026 429.615C105.026 431.803 106.794 433.579 108.975 433.579C110.323 433.579 111.505 432.902 112.223 431.876L157.886 458.314C157.664 458.811 157.534 459.36 157.534 459.936C157.534 462.011 159.13 463.698 161.16 463.871V516.81C159.13 516.98 157.534 518.664 157.534 520.742C157.534 521.371 157.692 521.96 157.952 522.487L112.222 548.968C111.504 547.938 110.322 547.263 108.974 547.263C106.794 547.263 105.025 549.042 105.025 551.227C105.025 553.417 106.793 555.192 108.974 555.192C111.159 555.192 112.929 553.418 112.929 551.227C112.929 550.624 112.785 550.056 112.545 549.548L158.292 523.058C159.007 524.052 160.167 524.709 161.489 524.709C162.808 524.709 163.964 524.052 164.685 523.058L210.428 549.548C210.187 550.056 210.039 550.624 210.039 551.227C210.039 553.303 211.639 554.993 213.668 555.161V608.103C211.64 608.274 210.039 609.959 210.039 612.034C210.039 614.224 211.811 616 213.997 616C216.183 615.997 217.955 614.222 217.955 612.031ZM165.444 338.318C165.444 336.244 163.848 334.556 161.82 334.389V281.445C163.848 281.277 165.444 279.589 165.444 277.516C165.444 276.937 165.314 276.385 165.093 275.893L210.758 249.451C211.473 250.483 212.659 251.161 214.001 251.161C215.344 251.161 216.526 250.483 217.243 249.456L262.926 275.903C262.695 276.41 262.56 276.966 262.56 277.558C262.56 279.63 264.154 281.319 266.183 281.488V334.431C264.154 334.6 262.56 336.286 262.56 338.36C262.56 338.976 262.707 339.555 262.963 340.079L217.243 366.551C216.526 365.519 215.344 364.84 214.001 364.84C212.659 364.84 211.473 365.519 210.758 366.551L165.025 340.068C165.284 339.54 165.444 338.951 165.444 338.318ZM367.965 275.913C367.723 276.426 367.574 276.992 367.574 277.598C367.574 279.675 369.174 281.36 371.199 281.527V334.471C369.175 334.639 367.574 336.327 367.574 338.402C367.574 339.008 367.722 339.577 367.965 340.087L322.263 366.551C321.548 365.519 320.364 364.84 319.024 364.84C317.677 364.84 316.492 365.519 315.775 366.551L270.06 340.079C270.314 339.556 270.465 338.977 270.465 338.36C270.465 336.286 268.868 334.6 266.84 334.431V281.488C268.868 281.319 270.465 279.63 270.465 277.558C270.465 276.965 270.326 276.41 270.096 275.903L315.775 249.451C316.492 250.483 317.676 251.161 319.024 251.161C320.364 251.161 321.548 250.483 322.263 249.456L367.965 275.913ZM315.454 184.703C315.209 185.212 315.068 185.782 315.068 186.387C315.068 188.462 316.666 190.146 318.693 190.318V243.26C316.666 243.433 315.068 245.115 315.068 247.191C315.068 247.797 315.209 248.365 315.454 248.878L269.778 275.322C269.068 274.274 267.875 273.591 266.508 273.591C265.152 273.591 263.953 274.275 263.245 275.322L217.565 248.878C217.809 248.365 217.955 247.798 217.955 247.191C217.955 245.115 216.355 243.433 214.33 243.26V190.318C216.354 190.146 217.955 188.462 217.955 186.387C217.955 185.782 217.809 185.212 217.565 184.703L263.288 158.228C264.006 159.243 265.177 159.905 266.509 159.905C267.843 159.905 269.017 159.242 269.732 158.228L315.454 184.703ZM210.758 67.0318C211.473 68.06 212.659 68.7364 214.001 68.7364C215.344 68.7364 216.526 68.06 217.243 67.0358L262.926 93.4798C262.695 93.9874 262.56 94.543 262.56 95.1355C262.56 97.2098 264.154 98.8945 266.183 99.0684V152.008C264.154 152.179 262.56 153.865 262.56 155.941C262.56 156.559 262.707 157.134 262.963 157.656L217.243 184.128C216.526 183.095 215.344 182.421 214.001 182.421C212.659 182.421 211.473 183.094 210.758 184.128L165.025 157.645C165.285 157.118 165.444 156.53 165.444 155.9C165.444 153.825 163.848 152.135 161.82 151.965V99.0254C163.848 98.8525 165.444 97.1699 165.444 95.0935C165.444 94.514 165.314 93.9684 165.093 93.4698L210.758 67.0318ZM158.296 158.216C159.011 159.209 160.171 159.868 161.493 159.868C162.812 159.868 163.968 159.209 164.689 158.216L210.432 184.704C210.191 185.213 210.043 185.783 210.043 186.388C210.043 188.463 211.643 190.147 213.672 190.319V243.261C211.644 243.434 210.043 245.116 210.043 247.192C210.043 247.798 210.19 248.366 210.432 248.879L164.777 275.31C164.069 274.248 162.863 273.548 161.493 273.548C160.121 273.548 158.913 274.248 158.205 275.31L112.549 248.879C112.789 248.366 112.933 247.799 112.933 247.192C112.933 245.116 111.334 243.434 109.312 243.261V190.319C111.333 190.147 112.933 188.463 112.933 186.388C112.933 185.783 112.789 185.213 112.549 184.704L158.296 158.216ZM59.9852 340.056C60.2562 339.522 60.4236 338.92 60.4236 338.278C60.4236 336.203 58.8285 334.514 56.7999 334.347V281.405C58.8285 281.23 60.4236 279.548 60.4236 277.473C60.4236 276.905 60.3021 276.372 60.0869 275.881L105.735 249.45C106.452 250.482 107.633 251.16 108.977 251.16C110.325 251.16 111.507 250.482 112.225 249.455L157.888 275.893C157.666 276.385 157.536 276.937 157.536 277.516C157.536 279.589 159.132 281.278 161.162 281.445V334.389C159.132 334.556 157.536 336.244 157.536 338.318C157.536 338.951 157.694 339.54 157.954 340.067L112.224 366.55C111.506 365.518 110.324 364.839 108.976 364.839C107.632 364.839 106.451 365.518 105.734 366.55L59.9852 340.056Z" fill="#2DAAAE"/>
<path opacity="0.3" d="M173.19 486.728C173.408 486.289 173.541 485.799 173.541 485.273C173.541 483.544 172.207 482.135 170.519 481.997V437.881C172.207 437.739 173.541 436.337 173.541 434.604C173.541 434.124 173.43 433.668 173.245 433.256L211.299 411.22C211.893 412.08 212.882 412.641 214 412.641C215.12 412.641 216.107 412.081 216.704 411.224L254.767 433.263C254.572 433.686 254.46 434.146 254.46 434.64C254.46 436.372 255.791 437.775 257.479 437.915V482.03C255.791 482.171 254.46 483.579 254.46 485.307C254.46 485.82 254.587 486.3 254.796 486.735L216.704 508.797C216.107 507.938 215.12 507.373 214 507.373C212.882 507.373 211.893 507.937 211.299 508.797L173.19 486.728ZM260.477 432.778C259.887 431.906 258.891 431.334 257.757 431.334C256.623 431.334 255.627 431.906 255.034 432.778L216.973 410.74C217.175 410.316 217.295 409.843 217.295 409.337C217.295 407.608 215.965 406.205 214.276 406.065V361.944C215.965 361.805 217.295 360.399 217.295 358.668C217.295 358.166 217.175 357.693 216.973 357.265L255.072 335.205C255.67 336.053 256.647 336.606 257.757 336.606C258.869 336.606 259.847 336.052 260.44 335.205L298.539 357.265C298.336 357.694 298.219 358.166 298.219 358.668C298.219 360.399 299.549 361.806 301.236 361.944V406.065C299.549 406.206 298.219 407.608 298.219 409.337C298.219 409.843 298.336 410.316 298.539 410.74L260.477 432.778ZM129.462 410.74C129.666 410.316 129.782 409.843 129.782 409.337C129.782 407.608 128.449 406.205 126.765 406.065V361.944C128.449 361.805 129.782 360.399 129.782 358.668C129.782 358.166 129.666 357.693 129.462 357.265L167.583 335.195C168.179 336.023 169.144 336.572 170.245 336.572C171.344 336.572 172.308 336.023 172.908 335.195L211.031 357.265C210.827 357.694 210.707 358.166 210.707 358.668C210.707 360.399 212.038 361.806 213.726 361.944V406.065C212.038 406.206 210.707 407.608 210.707 409.337C210.707 409.843 210.827 410.316 211.031 410.74L172.985 432.768C172.393 431.881 171.389 431.299 170.245 431.299C169.103 431.299 168.098 431.881 167.506 432.768L129.462 410.74ZM217.295 561.346C217.295 559.616 215.965 558.211 214.276 558.07V513.955C215.965 513.813 217.295 512.406 217.295 510.678C217.295 510.176 217.175 509.7 216.973 509.275L255.072 487.216C255.67 488.058 256.647 488.612 257.757 488.612C258.869 488.612 259.847 488.057 260.44 487.216L298.539 509.275C298.336 509.701 298.219 510.176 298.219 510.678C298.219 512.503 299.693 513.983 301.511 513.983C303.334 513.983 304.807 512.503 304.807 510.678C304.807 508.855 303.335 507.374 301.511 507.374C300.393 507.374 299.404 507.938 298.807 508.798L260.716 486.736C260.925 486.301 261.051 485.821 261.051 485.308C261.051 483.58 259.723 482.171 258.031 482.031V437.916C259.723 437.775 261.051 436.373 261.051 434.641C261.051 434.147 260.938 433.687 260.745 433.264L298.807 411.221C299.404 412.081 300.393 412.642 301.511 412.642C303.334 412.642 304.807 411.166 304.807 409.338C304.807 407.609 303.476 406.206 301.79 406.066V361.945C303.476 361.806 304.807 360.4 304.807 358.669C304.807 358.167 304.689 357.694 304.489 357.266L342.567 335.221C343.162 336.077 344.146 336.642 345.273 336.642C346.394 336.642 347.379 336.078 347.975 335.221L386.057 357.266C385.854 357.695 385.73 358.167 385.73 358.669C385.73 360.496 387.209 361.978 389.028 361.978C390.847 361.978 392.324 360.496 392.324 358.669C392.324 356.848 390.848 355.365 389.028 355.365C387.91 355.365 386.921 355.929 386.324 356.791L348.244 334.737C348.443 334.312 348.567 333.841 348.567 333.338C348.567 331.606 347.234 330.203 345.543 330.062V285.943C347.234 285.802 348.567 284.398 348.567 282.67C348.567 282.164 348.443 281.692 348.244 281.268L386.324 259.216C386.921 260.073 387.91 260.639 389.028 260.639C390.847 260.639 392.324 259.157 392.324 257.333C392.324 255.507 390.848 254.027 389.028 254.027C387.209 254.027 385.73 255.508 385.73 257.333C385.73 257.837 385.854 258.309 386.057 258.738L347.975 280.783C347.379 279.926 346.394 279.364 345.273 279.364C344.146 279.364 343.162 279.926 342.567 280.783L304.489 258.738C304.689 258.309 304.807 257.837 304.807 257.333C304.807 255.603 303.476 254.198 301.79 254.057V209.936C303.476 209.793 304.807 208.388 304.807 206.662C304.807 204.837 303.335 203.358 301.511 203.358C300.393 203.358 299.404 203.918 298.807 204.779L260.716 182.72C260.925 182.285 261.051 181.804 261.051 181.29C261.051 179.559 259.723 178.155 258.031 178.015V133.9C259.723 133.754 261.051 132.352 261.051 130.623C261.051 130.131 260.938 129.667 260.745 129.244L298.807 107.201C299.404 108.061 300.393 108.625 301.511 108.625C303.334 108.625 304.807 107.145 304.807 105.322C304.807 103.495 303.335 102.015 301.511 102.015C299.694 102.015 298.219 103.495 298.219 105.322C298.219 105.824 298.336 106.297 298.539 106.723L260.477 128.76C259.887 127.888 258.891 127.315 257.757 127.315C256.623 127.315 255.627 127.888 255.034 128.76L216.973 106.723C217.175 106.297 217.295 105.824 217.295 105.322C217.295 103.592 215.965 102.183 214.276 102.043V57.9279C215.965 57.7851 217.295 56.3832 217.295 54.6515C217.295 52.828 215.82 51.3472 214.001 51.3472C212.182 51.3472 210.706 52.828 210.706 54.6515C210.706 56.3832 212.037 57.7851 213.725 57.9279V102.044C212.037 102.184 210.706 103.593 210.706 105.323C210.706 105.825 210.826 106.298 211.03 106.724L172.984 128.754C172.392 127.866 171.388 127.282 170.244 127.282C169.102 127.282 168.097 127.865 167.505 128.754L129.462 106.724C129.666 106.298 129.782 105.825 129.782 105.323C129.782 103.496 128.307 102.016 126.485 102.016C124.669 102.016 123.194 103.496 123.194 105.323C123.194 107.146 124.668 108.626 126.485 108.626C127.606 108.626 128.595 108.062 129.191 107.206L167.241 129.234C167.057 129.651 166.95 130.108 166.95 130.589C166.95 132.316 168.277 133.722 169.97 133.866V177.983C168.277 178.122 166.95 179.529 166.95 181.258C166.95 181.783 167.083 182.273 167.302 182.713L129.192 204.78C128.596 203.918 127.607 203.359 126.486 203.359C124.67 203.359 123.195 204.837 123.195 206.663C123.195 208.39 124.525 209.795 126.213 209.937V254.055C124.525 254.196 123.195 255.6 123.195 257.331C123.195 257.835 123.316 258.307 123.513 258.736L85.4808 280.752C84.8959 279.853 83.8856 279.257 82.7308 279.257C81.5781 279.257 80.5668 279.853 79.9779 280.752L41.9473 258.736C42.1475 258.307 42.2671 257.835 42.2671 257.331C42.2671 255.505 40.7915 254.025 38.9742 254.025C37.1558 254.025 35.6782 255.506 35.6782 257.331C35.6782 259.155 37.1558 260.637 38.9742 260.637C40.0951 260.637 41.0824 260.071 41.6773 259.216L79.7159 281.238C79.5375 281.645 79.4379 282.09 79.4379 282.564C79.4379 284.293 80.765 285.697 82.4548 285.84V329.958C80.765 330.099 79.4379 331.503 79.4379 333.235C79.4379 333.768 79.5754 334.265 79.8026 334.714L41.6773 356.791C41.0824 355.93 40.0951 355.365 38.9742 355.365C37.1558 355.365 35.6782 356.847 35.6782 358.669C35.6782 360.496 37.1558 361.978 38.9742 361.978C40.7915 361.978 42.2671 360.496 42.2671 358.669C42.2671 358.167 42.1475 357.694 41.9473 357.266L80.0826 335.185C80.6824 336.001 81.6408 336.538 82.7298 336.538C83.8218 336.538 84.7774 336.002 85.3742 335.185L123.511 357.266C123.314 357.695 123.193 358.167 123.193 358.669C123.193 360.4 124.523 361.807 126.211 361.945V406.066C124.523 406.207 123.193 407.609 123.193 409.338C123.193 411.165 124.667 412.642 126.484 412.642C127.605 412.642 128.594 412.082 129.19 411.225L167.24 433.257C167.056 433.669 166.949 434.124 166.949 434.605C166.949 436.338 168.276 437.741 169.969 437.882V481.998C168.276 482.137 166.949 483.545 166.949 485.274C166.949 485.8 167.082 486.29 167.301 486.729L129.19 508.798C128.594 507.939 127.605 507.374 126.484 507.374C124.668 507.374 123.193 508.854 123.193 510.678C123.193 512.503 124.667 513.983 126.484 513.983C128.305 513.983 129.781 512.503 129.781 510.678C129.781 510.176 129.665 509.7 129.461 509.275L167.582 487.205C168.178 488.035 169.143 488.578 170.244 488.578C171.343 488.578 172.307 488.035 172.907 487.205L211.03 509.275C210.826 509.701 210.706 510.176 210.706 510.678C210.706 512.406 212.037 513.814 213.725 513.955V558.07C212.037 558.212 210.706 559.616 210.706 561.346C210.706 563.17 212.181 564.651 214.001 564.651C215.819 564.65 217.295 563.17 217.295 561.346ZM173.541 333.266C173.541 331.535 172.207 330.13 170.519 329.985V285.872C172.207 285.73 173.541 284.327 173.541 282.597C173.541 282.113 173.43 281.658 173.245 281.246L211.299 259.213C211.893 260.07 212.882 260.636 214 260.636C215.12 260.636 216.107 260.07 216.704 259.215L254.767 281.255C254.572 281.677 254.46 282.138 254.46 282.633C254.46 284.361 255.791 285.766 257.479 285.908V330.025C255.791 330.167 254.46 331.57 254.46 333.3C254.46 333.814 254.587 334.293 254.796 334.728L216.704 356.79C216.107 355.929 215.12 355.364 214 355.364C212.882 355.364 211.893 355.928 211.299 356.79L173.189 334.719C173.408 334.282 173.541 333.789 173.541 333.266ZM342.295 281.264C342.099 281.689 341.974 282.161 341.974 282.666C341.974 284.394 343.305 285.799 344.994 285.939V330.058C343.305 330.2 341.974 331.602 341.974 333.334C341.974 333.837 342.099 334.309 342.295 334.733L304.215 356.787C303.621 355.926 302.631 355.361 301.511 355.361C300.393 355.361 299.404 355.925 298.807 356.787L260.716 334.725C260.925 334.291 261.051 333.811 261.051 333.297C261.051 331.567 259.723 330.163 258.031 330.022V285.905C259.723 285.763 261.051 284.358 261.051 282.63C261.051 282.135 260.938 281.673 260.745 281.252L298.807 259.21C299.404 260.068 300.393 260.633 301.511 260.633C302.631 260.633 303.621 260.068 304.215 259.212L342.295 281.264ZM298.54 205.259C298.337 205.684 298.22 206.156 298.22 206.662C298.22 208.389 299.549 209.794 301.237 209.936V254.054C299.549 254.195 298.22 255.599 298.22 257.33C298.22 257.834 298.337 258.306 298.54 258.735L260.478 280.77C259.888 279.898 258.892 279.326 257.758 279.326C256.624 279.326 255.628 279.898 255.035 280.77L216.974 258.735C217.176 258.306 217.296 257.834 217.296 257.33C217.296 255.6 215.966 254.195 214.277 254.054V209.936C215.966 209.793 217.296 208.388 217.296 206.662C217.296 206.156 217.176 205.684 216.974 205.259L255.073 183.2C255.671 184.043 256.648 184.596 257.758 184.596C258.87 184.596 259.848 184.042 260.441 183.2L298.54 205.259ZM211.3 107.202C211.894 108.062 212.883 108.626 214.001 108.626C215.121 108.626 216.108 108.062 216.705 107.206L254.768 129.245C254.573 129.667 254.461 130.132 254.461 130.624C254.461 132.352 255.792 133.755 257.48 133.901V178.016C255.792 178.157 254.461 179.56 254.461 181.291C254.461 181.804 254.588 182.286 254.797 182.721L216.705 204.78C216.108 203.918 215.121 203.359 214.001 203.359C212.883 203.359 211.894 203.919 211.3 204.78L173.19 182.713C173.408 182.272 173.541 181.783 173.541 181.258C173.541 179.529 172.207 178.122 170.519 177.983V133.865C172.207 133.722 173.541 132.315 173.541 130.588C173.541 130.107 173.43 129.65 173.245 129.233L211.3 107.202ZM167.583 183.188C168.179 184.012 169.144 184.56 170.245 184.56C171.344 184.56 172.308 184.012 172.908 183.188L211.031 205.258C210.827 205.683 210.707 206.155 210.707 206.661C210.707 208.388 212.038 209.793 213.726 209.935V254.053C212.038 254.194 210.707 255.598 210.707 257.329C210.707 257.833 210.827 258.305 211.031 258.734L172.985 280.76C172.393 279.875 171.389 279.29 170.245 279.29C169.103 279.29 168.098 279.875 167.506 280.76L129.462 258.734C129.666 258.305 129.782 257.833 129.782 257.329C129.782 255.599 128.449 254.194 126.765 254.053V209.936C128.449 209.793 129.782 208.388 129.782 206.662C129.782 206.156 129.666 205.684 129.462 205.259L167.583 183.188ZM85.6611 334.712C85.8873 334.263 86.0288 333.766 86.0288 333.233C86.0288 331.501 84.6957 330.096 83.0078 329.956V285.838C84.6957 285.695 86.0288 284.292 86.0288 282.562C86.0288 282.088 85.9242 281.643 85.7468 281.236L123.786 259.212C124.383 260.07 125.369 260.635 126.486 260.635C127.607 260.635 128.596 260.07 129.192 259.214L167.242 281.245C167.058 281.658 166.951 282.113 166.951 282.596C166.951 284.326 168.278 285.729 169.971 285.871V329.984C168.278 330.13 166.951 331.534 166.951 333.265C166.951 333.788 167.084 334.281 167.303 334.717L129.192 356.788C128.596 355.927 127.607 355.362 126.486 355.362C125.369 355.362 124.383 355.926 123.786 356.788L85.6611 334.712Z" fill="#2DAAAE"/>
<path d="M181.356 450.971C181.529 450.618 181.632 450.228 181.632 449.807C181.632 448.422 180.571 447.301 179.218 447.187V411.898C180.57 411.785 181.632 410.66 181.632 409.276C181.632 408.89 181.547 408.524 181.4 408.195L211.84 390.571C212.316 391.257 213.106 391.707 214.002 391.707C214.897 391.707 215.687 391.257 216.163 390.571L246.612 408.202C246.46 408.539 246.368 408.912 246.368 409.303C246.368 410.687 247.431 411.812 248.785 411.926V447.217C247.432 447.33 246.368 448.452 246.368 449.835C246.368 450.249 246.468 450.63 246.637 450.978L216.163 468.625C215.687 467.938 214.897 467.484 214.002 467.484C213.107 467.484 212.317 467.938 211.84 468.625L181.356 450.971ZM251.18 407.815C250.706 407.117 249.907 406.659 249.005 406.659C248.095 406.659 247.298 407.117 246.825 407.815L216.377 390.186C216.538 389.847 216.635 389.467 216.635 389.065C216.635 387.681 215.569 386.559 214.22 386.444V351.154C215.569 351.04 216.635 349.916 216.635 348.53C216.635 348.128 216.538 347.75 216.377 347.41L246.855 329.762C247.332 330.438 248.112 330.881 249.004 330.881C249.888 330.881 250.672 330.438 251.148 329.762L281.625 347.41C281.465 347.75 281.369 348.128 281.369 348.53C281.369 349.916 282.431 351.04 283.785 351.154V386.443C282.432 386.558 281.369 387.68 281.369 389.064C281.369 389.466 281.465 389.846 281.625 390.185L251.18 407.815ZM146.376 390.185C146.539 389.846 146.633 389.466 146.633 389.064C146.633 387.68 145.569 386.558 144.217 386.443V351.154C145.568 351.04 146.633 349.916 146.633 348.53C146.633 348.128 146.539 347.75 146.376 347.41L176.867 329.755C177.347 330.417 178.12 330.854 179.001 330.854C179.882 330.854 180.653 330.417 181.132 329.755L211.625 347.41C211.463 347.75 211.364 348.128 211.364 348.53C211.364 349.916 212.432 351.04 213.783 351.154V386.443C212.433 386.558 211.364 387.68 211.364 389.064C211.364 389.466 211.463 389.846 211.625 390.185L181.192 407.807C180.717 407.099 179.916 406.631 179.001 406.631C178.086 406.631 177.282 407.099 176.809 407.807L146.376 390.185ZM216.636 510.659C216.636 509.276 215.57 508.153 214.221 508.041V472.751C215.57 472.639 216.636 471.513 216.636 470.129C216.636 469.726 216.538 469.348 216.378 469.007L246.856 451.36C247.333 452.035 248.113 452.479 249.005 452.479C249.889 452.479 250.673 452.035 251.149 451.36L281.626 469.007C281.466 469.348 281.37 469.726 281.37 470.129C281.37 471.588 282.551 472.772 284.005 472.772C285.46 472.772 286.642 471.589 286.642 470.129C286.642 468.669 285.46 467.484 284.005 467.484C283.11 467.484 282.321 467.938 281.843 468.625L251.37 450.978C251.536 450.63 251.641 450.25 251.641 449.835C251.641 448.452 250.578 447.33 249.222 447.217V411.926C250.577 411.812 251.641 410.687 251.641 409.303C251.641 408.912 251.547 408.539 251.394 408.202L281.844 390.571C282.321 391.257 283.11 391.707 284.006 391.707C285.461 391.707 286.643 390.522 286.643 389.064C286.643 387.68 285.575 386.558 284.227 386.443V351.154C285.575 351.04 286.643 349.916 286.643 348.53C286.643 348.128 286.546 347.75 286.385 347.41L316.844 329.773C317.321 330.46 318.11 330.908 319.006 330.908C319.905 330.908 320.694 330.46 321.168 329.773L351.633 347.41C351.47 347.75 351.374 348.128 351.374 348.53C351.374 349.991 352.556 351.175 354.009 351.175C355.47 351.175 356.646 349.99 356.646 348.53C356.646 347.073 355.469 345.888 354.009 345.888C353.115 345.888 352.325 346.338 351.849 347.024L321.385 329.388C321.547 329.046 321.643 328.668 321.643 328.267C321.643 326.883 320.579 325.76 319.226 325.648V290.356C320.578 290.243 321.643 289.118 321.643 287.735C321.643 287.332 321.547 286.953 321.385 286.613L351.849 268.975C352.324 269.661 353.115 270.113 354.009 270.113C355.47 270.113 356.646 268.928 356.646 267.468C356.646 266.009 355.469 264.825 354.009 264.825C352.556 264.825 351.374 266.009 351.374 267.468C351.374 267.87 351.47 268.249 351.633 268.591L321.168 286.225C320.695 285.541 319.906 285.091 319.006 285.091C318.111 285.091 317.321 285.541 316.844 286.225L286.385 268.591C286.546 268.249 286.643 267.869 286.643 267.468C286.643 266.084 285.575 264.961 284.227 264.848V229.557C285.575 229.444 286.643 228.319 286.643 226.935C286.643 225.476 285.461 224.293 284.006 224.293C283.111 224.293 282.322 224.743 281.844 225.428L251.371 207.785C251.537 207.435 251.642 207.054 251.642 206.643C251.642 205.259 250.579 204.133 249.223 204.02V168.73C250.578 168.617 251.642 167.492 251.642 166.11C251.642 165.716 251.548 165.346 251.395 165.009L281.845 147.378C282.322 148.065 283.111 148.514 284.007 148.514C285.462 148.514 286.644 147.331 286.644 145.87C286.644 144.409 285.462 143.227 284.007 143.227C282.553 143.227 281.372 144.409 281.372 145.87C281.372 146.272 281.468 146.652 281.628 146.992L251.181 164.621C250.707 163.923 249.908 163.466 249.006 163.466C248.096 163.466 247.299 163.923 246.826 164.621L216.378 146.992C216.538 146.652 216.636 146.272 216.636 145.87C216.636 144.486 215.57 143.362 214.221 143.249V107.958C215.57 107.846 216.636 106.722 216.636 105.337C216.636 103.879 215.456 102.695 214.001 102.695C212.545 102.695 211.363 103.878 211.363 105.337C211.363 106.722 212.431 107.845 213.782 107.958V143.249C212.432 143.362 211.363 144.486 211.363 145.87C211.363 146.272 211.462 146.652 211.624 146.992L181.191 164.613C180.716 163.904 179.915 163.438 179 163.438C178.085 163.438 177.281 163.905 176.808 164.613L146.376 146.992C146.539 146.652 146.633 146.272 146.633 145.87C146.633 144.409 145.452 143.227 143.996 143.227C142.543 143.227 141.363 144.409 141.363 145.87C141.363 147.33 142.543 148.514 143.996 148.514C144.893 148.514 145.682 148.064 146.161 147.379L176.601 165.001C176.451 165.331 176.364 165.697 176.364 166.081C176.364 167.465 177.426 168.587 178.779 168.703V203.992C177.427 204.106 176.364 205.229 176.364 206.614C176.364 207.034 176.468 207.426 176.645 207.777L146.161 225.428C145.683 224.743 144.894 224.293 143.996 224.293C142.543 224.293 141.363 225.476 141.363 226.935C141.363 228.319 142.426 229.444 143.779 229.557V264.848C142.427 264.961 141.363 266.084 141.363 267.468C141.363 267.87 141.459 268.249 141.621 268.591L111.199 286.205C110.726 285.485 109.919 285.009 108.994 285.009C108.072 285.009 107.267 285.485 106.794 286.205L76.371 268.591C76.5324 268.249 76.6301 267.869 76.6301 267.468C76.6301 266.009 75.4504 264.825 73.9928 264.825C72.5381 264.825 71.3574 266.009 71.3574 267.468C71.3574 268.927 72.5381 270.113 73.9928 270.113C74.8895 270.113 75.6786 269.661 76.1568 268.976L106.583 286.59C106.439 286.917 106.359 287.275 106.359 287.652C106.359 289.036 107.424 290.159 108.774 290.274V325.564C107.425 325.677 106.359 326.799 106.359 328.183C106.359 328.613 106.472 329.012 106.651 329.371L76.1568 347.025C75.6796 346.339 74.8905 345.889 73.9928 345.889C72.5381 345.889 71.3574 347.074 71.3574 348.531C71.3574 349.992 72.5381 351.176 73.9928 351.176C75.4504 351.176 76.6301 349.991 76.6301 348.531C76.6301 348.129 76.5324 347.751 76.371 347.411L106.881 329.747C107.359 330.4 108.124 330.827 108.994 330.827C109.867 330.827 110.635 330.4 111.113 329.747L141.621 347.411C141.459 347.751 141.363 348.129 141.363 348.531C141.363 349.917 142.426 351.041 143.779 351.155V386.444C142.427 386.559 141.363 387.681 141.363 389.065C141.363 390.523 142.543 391.708 143.996 391.708C144.893 391.708 145.682 391.258 146.161 390.572L176.601 408.196C176.451 408.525 176.364 408.891 176.364 409.277C176.364 410.661 177.426 411.786 178.779 411.899V447.188C177.427 447.302 176.364 448.423 176.364 449.808C176.364 450.229 176.468 450.62 176.645 450.972L146.161 468.625C145.683 467.938 144.894 467.484 143.996 467.484C142.543 467.484 141.363 468.67 141.363 470.129C141.363 471.588 142.543 472.772 143.996 472.772C145.452 472.772 146.633 471.589 146.633 470.129C146.633 469.726 146.539 469.348 146.376 469.007L176.867 451.352C177.347 452.013 178.12 452.45 179.001 452.45C179.882 452.45 180.653 452.014 181.132 451.352L211.625 469.007C211.463 469.348 211.364 469.726 211.364 470.129C211.364 471.513 212.432 472.639 213.783 472.751V508.041C212.433 508.153 211.364 509.276 211.364 510.659C211.364 512.121 212.547 513.303 214.002 513.303C215.457 513.303 216.636 512.121 216.636 510.659ZM181.633 328.211C181.633 326.827 180.572 325.705 179.219 325.591V290.302C180.571 290.186 181.633 289.064 181.633 287.68C181.633 287.296 181.548 286.929 181.401 286.6L211.841 268.975C212.317 269.661 213.107 270.113 214.003 270.113C214.898 270.113 215.688 269.661 216.164 268.976L246.613 286.607C246.461 286.943 246.369 287.314 246.369 287.708C246.369 289.091 247.432 290.216 248.786 290.329V325.62C247.433 325.73 246.369 326.855 246.369 328.238C246.369 328.65 246.469 329.034 246.638 329.383L216.164 347.025C215.688 346.339 214.898 345.889 214.003 345.889C213.108 345.889 212.318 346.339 211.841 347.025L181.357 329.374C181.529 329.022 181.633 328.629 181.633 328.211ZM316.627 286.613C316.471 286.953 316.371 287.332 316.371 287.735C316.371 289.118 317.438 290.242 318.791 290.356V325.648C317.439 325.76 316.371 326.883 316.371 328.267C316.371 328.668 316.471 329.046 316.627 329.388L286.168 347.024C285.691 346.338 284.903 345.888 284.006 345.888C283.11 345.888 282.322 346.338 281.844 347.024L251.371 329.382C251.537 329.033 251.642 328.65 251.642 328.237C251.642 326.854 250.579 325.729 249.223 325.619V290.328C250.578 290.216 251.642 289.09 251.642 287.707C251.642 287.313 251.548 286.941 251.395 286.606L281.845 268.975C282.322 269.661 283.111 270.113 284.007 270.113C284.904 270.113 285.691 269.661 286.169 268.976L316.627 286.613ZM281.627 225.813C281.467 226.155 281.371 226.533 281.371 226.935C281.371 228.319 282.433 229.444 283.787 229.557V264.848C282.434 264.961 281.371 266.084 281.371 267.468C281.371 267.87 281.467 268.249 281.627 268.591L251.18 286.22C250.706 285.521 249.907 285.064 249.005 285.064C248.095 285.064 247.298 285.521 246.825 286.22L216.377 268.591C216.538 268.249 216.635 267.869 216.635 267.468C216.635 266.084 215.569 264.961 214.22 264.848V229.557C215.569 229.444 216.635 228.319 216.635 226.935C216.635 226.534 216.538 226.156 216.377 225.813L246.855 208.166C247.332 208.84 248.112 209.284 249.004 209.284C249.888 209.284 250.672 208.84 251.148 208.166L281.627 225.813ZM211.84 147.378C212.316 148.065 213.106 148.514 214.002 148.514C214.897 148.514 215.687 148.064 216.163 147.379L246.612 165.009C246.46 165.346 246.368 165.716 246.368 166.11C246.368 167.492 247.431 168.617 248.785 168.73V204.02C247.432 204.132 246.368 205.259 246.368 206.643C246.368 207.054 246.468 207.435 246.637 207.785L216.163 225.428C215.687 224.743 214.897 224.293 214.002 224.293C213.107 224.293 212.317 224.743 211.84 225.428L181.356 207.777C181.529 207.426 181.632 207.034 181.632 206.614C181.632 205.23 180.571 204.107 179.218 203.992V168.703C180.57 168.587 181.632 167.465 181.632 166.081C181.632 165.697 181.547 165.331 181.4 165.001L211.84 147.378ZM176.866 208.158C177.346 208.821 178.119 209.259 179 209.259C179.881 209.259 180.652 208.821 181.131 208.158L211.624 225.813C211.462 226.155 211.363 226.533 211.363 226.935C211.363 228.319 212.431 229.444 213.782 229.557V264.848C212.432 264.961 211.363 266.084 211.363 267.468C211.363 267.87 211.462 268.249 211.624 268.591L181.191 286.211C180.716 285.502 179.915 285.036 179 285.036C178.085 285.036 177.281 285.501 176.808 286.211L146.376 268.591C146.539 268.249 146.633 267.869 146.633 267.468C146.633 266.084 145.569 264.961 144.217 264.848V229.557C145.568 229.444 146.633 228.319 146.633 226.935C146.633 226.534 146.539 226.156 146.376 225.813L176.866 208.158ZM111.341 329.37C111.52 329.012 111.629 328.612 111.629 328.182C111.629 326.798 110.566 325.676 109.213 325.563V290.273C110.565 290.159 111.629 289.036 111.629 287.651C111.629 287.274 111.55 286.916 111.408 286.589L141.835 268.974C142.313 269.66 143.103 270.112 143.996 270.112C144.893 270.112 145.682 269.66 146.161 268.975L176.601 286.599C176.451 286.928 176.364 287.294 176.364 287.679C176.364 289.063 177.426 290.185 178.779 290.301V325.59C177.427 325.704 176.364 326.826 176.364 328.21C176.364 328.629 176.468 329.022 176.645 329.372L146.161 347.023C145.683 346.337 144.894 345.887 143.996 345.887C143.103 345.887 142.313 346.337 141.835 347.023L111.341 329.37Z" fill="#2DAAAE"/>
<path d="M224.021 304.935H217.038V297.932H210.928V304.935H203.944V311.062H210.928V318.066H217.038V311.062H224.021V304.935Z" fill="#2DAAAE"/>
<path d="M222.943 414.673L220.458 418.988C220.021 418.825 219.519 418.995 219.278 419.414L218.483 420.799L220.173 421.777L220.97 420.393C221.209 419.974 221.104 419.454 220.746 419.154L223.794 413.858L222.943 414.673Z" fill="#2DAAAE"/>
<path d="M214.349 422.522L207.917 433.691L206.364 432.794C206.206 432.701 206.004 432.757 205.911 432.917C205.821 433.075 205.874 433.278 206.031 433.371L215.537 438.875C215.695 438.966 215.9 438.913 215.99 438.752C216.083 438.595 216.03 438.389 215.868 438.297L214.317 437.4L220.747 426.229C221.571 424.798 221.08 422.961 219.654 422.134L218.43 421.426C217.005 420.599 215.17 421.09 214.349 422.522ZM219.321 422.71C220.432 423.353 220.815 424.782 220.173 425.895L213.741 437.065L208.49 434.026L209.17 432.848L211.974 434.469C212.053 434.516 212.156 434.489 212.201 434.406C212.247 434.328 212.22 434.227 212.138 434.18L209.337 432.557L209.845 431.675L211.184 432.45C211.262 432.496 211.366 432.469 211.411 432.389C211.458 432.308 211.431 432.206 211.352 432.16L210.011 431.384L210.521 430.501L211.86 431.277C211.938 431.323 212.04 431.296 212.086 431.216C212.131 431.136 212.106 431.034 212.026 430.988L210.684 430.212L211.194 429.329L213.997 430.952C214.078 430.998 214.178 430.971 214.223 430.891C214.269 430.811 214.242 430.709 214.163 430.662L211.36 429.041L211.869 428.156L213.211 428.932C213.291 428.977 213.389 428.951 213.435 428.871C213.482 428.791 213.457 428.689 213.377 428.642L212.033 427.868L212.545 426.985L213.883 427.76C213.962 427.807 214.068 427.78 214.111 427.7C214.157 427.621 214.128 427.518 214.048 427.472L212.71 426.695L213.218 425.811L216.021 427.434C216.099 427.48 216.204 427.453 216.247 427.372C216.295 427.293 216.268 427.191 216.186 427.145L213.383 425.521L213.89 424.639L215.232 425.414C215.312 425.462 215.411 425.434 215.461 425.355C215.505 425.274 215.479 425.172 215.398 425.126L214.058 424.35L214.566 423.467L215.906 424.243C215.985 424.289 216.087 424.262 216.134 424.182C216.18 424.103 216.151 424 216.072 423.954L214.731 423.178L214.922 422.849C215.03 422.656 215.173 422.494 215.326 422.347L218.04 423.919C218.122 423.965 218.225 423.938 218.268 423.858C218.315 423.779 218.288 423.676 218.206 423.63L215.592 422.116C216.312 421.607 217.287 421.525 218.097 421.995L219.321 422.71Z" fill="#2DAAAE"/>
<path d="M207.236 437.374C207.073 437.281 206.872 437.338 206.779 437.497C206.687 437.656 206.743 437.859 206.901 437.952L211.147 440.411C211.307 440.502 211.509 440.448 211.6 440.287C211.695 440.129 211.638 439.927 211.482 439.833L210.414 439.216L211.559 437.225L209.447 436.002L208.303 437.993L207.236 437.374Z" fill="#2DAAAE"/>
<path d="M175.214 247.398C175.329 247.398 175.44 247.455 175.505 247.55L176.415 248.841L176.73 247.663L177.855 243.443C177.898 243.286 178.04 243.176 178.203 243.176C178.366 243.176 178.511 243.286 178.554 243.443L180.455 250.58L181.23 247.664L181.743 245.745C181.779 245.61 181.889 245.508 182.027 245.482C182.165 245.459 182.303 245.516 182.383 245.629L183.631 247.396H188.547C189.53 245.224 189.134 242.578 187.352 240.793C185.058 238.491 181.339 238.491 179.043 240.793C176.748 238.491 173.031 238.491 170.735 240.793C168.953 242.579 168.557 245.225 169.541 247.396H175.214V247.398Z" fill="#2DAAAE"/>
<path d="M183.445 248.119C183.33 248.119 183.22 248.063 183.15 247.967L182.242 246.676L181.928 247.852L180.799 252.073C180.759 252.232 180.613 252.342 180.454 252.342C180.289 252.342 180.146 252.233 180.105 252.073L178.202 244.937L177.428 247.853L176.908 249.774C176.872 249.909 176.76 250.01 176.623 250.034C176.485 250.059 176.347 250.001 176.267 249.888L175.025 248.121H169.933C170.158 248.478 170.424 248.817 170.736 249.127L179.043 257.459L187.352 249.127C187.664 248.817 187.931 248.478 188.155 248.121H183.445V248.119Z" fill="#2DAAAE"/>
<path d="M222.22 191.855H220.013V189.641H218.082V191.855H215.872V193.79H218.082V196.006H220.013V193.79H222.22V191.855Z" fill="#2DAAAE"/>
<path d="M221.436 184.673C223.051 181.865 222.087 178.263 219.291 176.643C216.494 175.023 212.902 175.988 211.286 178.796C209.795 181.383 210.501 184.646 212.813 186.411L211.906 187.988L211.521 187.765C211.497 187.752 211.468 187.759 211.453 187.782L207.446 194.744C207.434 194.766 207.44 194.797 207.466 194.809L209.518 196C209.54 196.012 209.573 196.003 209.583 195.98L213.589 189.02C213.606 188.997 213.597 188.967 213.574 188.954L213.187 188.731L214.095 187.153C216.776 188.282 219.946 187.259 221.436 184.673ZM212.567 179.538C213.776 177.439 216.458 176.719 218.549 177.929C220.642 179.14 221.359 181.834 220.151 183.93C218.947 186.027 216.261 186.749 214.17 185.538C212.081 184.326 211.361 181.634 212.567 179.538Z" fill="#2DAAAE"/>
<path d="M183.233 376.454H174.721C174.533 376.454 174.38 376.302 174.38 376.112C174.38 375.923 174.532 375.772 174.721 375.772H183.233C183.421 375.772 183.573 375.922 183.573 376.112C183.573 376.301 183.421 376.454 183.233 376.454Z" fill="#2DAAAE"/>
<path d="M180.017 372.242H177.935C177.746 372.242 177.591 372.092 177.591 371.902C177.591 371.714 177.745 371.56 177.935 371.56H180.017C180.207 371.56 180.358 371.714 180.358 371.902C180.358 372.092 180.207 372.242 180.017 372.242Z" fill="#2DAAAE"/>
<path d="M182.104 374.348H175.849C175.662 374.348 175.509 374.196 175.509 374.008C175.509 373.819 175.662 373.666 175.849 373.666H182.104C182.291 373.666 182.443 373.818 182.443 374.008C182.443 374.196 182.291 374.348 182.104 374.348Z" fill="#2DAAAE"/>
<path d="M183.233 361.557H174.721C174.533 361.557 174.38 361.406 174.38 361.216C174.38 361.028 174.532 360.874 174.721 360.874H183.233C183.421 360.874 183.573 361.027 183.573 361.216C183.573 361.405 183.421 361.557 183.233 361.557Z" fill="#2DAAAE"/>
<path d="M180.017 365.767H177.935C177.746 365.767 177.591 365.614 177.591 365.425C177.591 365.236 177.745 365.085 177.935 365.085H180.017C180.207 365.085 180.358 365.236 180.358 365.425C180.358 365.613 180.207 365.767 180.017 365.767Z" fill="#2DAAAE"/>
<path d="M182.104 363.661H175.849C175.662 363.661 175.509 363.51 175.509 363.321C175.509 363.132 175.662 362.979 175.849 362.979H182.104C182.291 362.979 182.443 363.131 182.443 363.321C182.443 363.51 182.291 363.661 182.104 363.661Z" fill="#2DAAAE"/>
<path d="M179.937 367.258C180.305 367.513 180.681 367.771 181.054 368.036C183.927 365.944 186.456 363.515 186.456 359.287C186.456 358.91 186.151 358.605 185.775 358.605C185.399 358.605 185.094 358.91 185.094 359.287C185.094 363.058 182.697 365.196 179.867 367.211C179.893 367.226 179.915 367.242 179.937 367.258Z" fill="#2DAAAE"/>
<path d="M178.014 370.069C177.646 369.815 177.271 369.557 176.897 369.291C174.026 371.383 171.496 373.814 171.496 378.04C171.496 378.417 171.801 378.724 172.176 378.724C172.553 378.724 172.855 378.417 172.855 378.04C172.855 374.27 175.252 372.131 178.086 370.116C178.06 370.101 178.036 370.085 178.014 370.069Z" fill="#2DAAAE"/>
<path d="M185.776 378.722C185.4 378.722 185.094 378.416 185.094 378.039C185.094 373.71 181.936 371.532 178.589 369.225C175.104 366.82 171.496 364.334 171.496 359.287C171.496 358.91 171.801 358.605 172.176 358.605C172.553 358.605 172.855 358.91 172.855 359.287C172.855 363.617 176.018 365.795 179.362 368.102C182.847 370.506 186.456 372.993 186.456 378.039C186.455 378.417 186.151 378.722 185.776 378.722Z" fill="#2DAAAE"/>
<path d="M252.243 368.533H249.976V366.259H247.991V368.533H245.724V370.522H247.991V372.797H249.976V370.522H252.243V368.533Z" fill="#2DAAAE"/>
<path d="M248.983 364.422C246.177 364.422 243.891 366.713 243.891 369.528C243.891 372.343 246.177 374.633 248.983 374.633C251.789 374.633 254.073 372.343 254.073 369.528C254.074 366.713 251.79 364.422 248.983 364.422ZM248.983 374.071C246.48 374.071 244.455 372.037 244.455 369.528C244.455 367.019 246.48 364.984 248.983 364.984C251.486 364.984 253.515 367.019 253.515 369.528C253.515 372.037 251.486 374.071 248.983 374.071Z" fill="#2DAAAE"/>
<path d="M256.561 362.972H241.408C240.054 362.972 238.946 364.082 238.946 365.441V373.617C238.946 374.974 240.053 376.086 241.408 376.086H256.561C257.915 376.086 259.023 374.975 259.023 373.617V365.441C259.022 364.082 257.915 362.972 256.561 362.972ZM248.983 375.216C245.855 375.216 243.313 372.665 243.313 369.529C243.313 366.391 245.856 363.841 248.983 363.841C252.11 363.841 254.655 366.392 254.655 369.529C254.656 372.665 252.111 375.216 248.983 375.216Z" fill="#2DAAAE"/>
<path d="M244.752 362.663V362.556C244.752 361.494 245.612 360.632 246.669 360.632H251.298C252.356 360.632 253.215 361.494 253.215 362.556V362.663H254.299V362.556C254.299 360.896 252.954 359.545 251.298 359.545H246.669C245.016 359.545 243.668 360.896 243.668 362.556V362.663H244.752Z" fill="#2DAAAE"/>
<path d="M253.944 247.948H252.346L251.373 246.568C251.31 246.479 251.201 246.434 251.095 246.454C250.986 246.473 250.903 246.553 250.872 246.658L250.47 248.16L249.866 250.437L248.377 244.858C248.344 244.735 248.232 244.649 248.107 244.649C247.977 244.649 247.867 244.735 247.834 244.858L246.952 248.159L246.705 249.078L245.995 248.069C245.942 247.993 245.858 247.948 245.766 247.948H244.023V248.514H245.619L246.591 249.894C246.652 249.985 246.762 250.03 246.87 250.01C246.976 249.99 247.062 249.911 247.091 249.806L247.497 248.304L248.107 246.025L249.591 251.604C249.623 251.728 249.735 251.813 249.865 251.813C249.992 251.813 250.101 251.728 250.134 251.604L251.015 248.304L251.26 247.386L251.974 248.395C252.027 248.47 252.112 248.514 252.204 248.514H253.944V247.948Z" fill="#2DAAAE"/>
<path d="M253.61 239.285H252.068V240.61H253.61C254.336 240.61 254.931 241.206 254.931 241.937V254.526C254.931 255.256 254.336 255.852 253.61 255.852H244.358C243.63 255.852 243.036 255.256 243.036 254.526V241.937C243.036 241.206 243.63 240.61 244.358 240.61H245.901V239.285H244.358C242.902 239.285 241.717 240.473 241.717 241.937V254.526C241.717 255.988 242.902 257.177 244.358 257.177H253.61C255.066 257.177 256.252 255.988 256.252 254.526V241.937C256.252 240.473 255.066 239.285 253.61 239.285Z" fill="#2DAAAE"/>
<path d="M251.05 238.606H250.581C250.581 237.722 249.864 237.003 248.984 237.003C248.102 237.003 247.384 237.722 247.384 238.606H246.919C246.732 238.606 246.586 238.756 246.586 238.937V240.958C246.586 241.141 246.732 241.288 246.919 241.288H251.049C251.231 241.288 251.378 241.141 251.378 240.958V238.937C251.38 238.756 251.232 238.606 251.05 238.606ZM248.985 237.666C249.501 237.666 249.921 238.088 249.921 238.606H248.044C248.045 238.088 248.466 237.666 248.985 237.666Z" fill="#2DAAAE"/>
<path d="M149.902 314.204H159.949C159.949 311.164 158.066 309.825 155.407 309.366C154.731 310.022 153.808 310.427 152.79 310.427C151.773 310.427 150.85 310.023 150.171 309.366C149.012 309.567 148.001 309.934 147.228 310.538C148.622 311.392 149.518 312.614 149.902 314.204Z" fill="#2DAAAE"/>
<path d="M149.12 304.615C149.057 304.889 149.022 305.177 149.022 305.47C149.022 307.559 150.709 309.251 152.789 309.251C154.872 309.251 156.557 307.559 156.557 305.47C156.557 305.177 156.523 304.889 156.46 304.615H149.12Z" fill="#2DAAAE"/>
<path d="M154.835 300.094H150.743C149.625 300.094 148.709 301.011 148.709 302.132L149.123 304.185H156.456L156.869 302.132C156.869 301.011 155.955 300.094 154.835 300.094ZM152.789 303.746C151.905 303.746 151.186 303.028 151.186 302.141C151.186 301.254 151.906 300.536 152.789 300.536C153.671 300.536 154.39 301.255 154.39 302.141C154.391 303.027 153.671 303.746 152.789 303.746Z" fill="#2DAAAE"/>
<path d="M153.831 301.744H153.183V301.098C153.183 301.011 153.113 300.941 153.029 300.941H152.552C152.466 300.941 152.396 301.011 152.396 301.098V301.744H151.751C151.665 301.744 151.593 301.816 151.593 301.902V302.378C151.593 302.464 151.665 302.536 151.751 302.536H152.396V303.184C152.396 303.27 152.466 303.342 152.552 303.342H153.029C153.113 303.342 153.183 303.271 153.183 303.184V302.536H153.831C153.916 302.536 153.986 302.465 153.986 302.378V301.902C153.987 301.816 153.916 301.744 153.831 301.744Z" fill="#2DAAAE"/>
<path d="M143.671 309.976C142.807 310.812 141.629 311.329 140.333 311.329C139.035 311.329 137.859 310.811 136.995 309.976C133.606 310.562 131.203 312.269 131.203 316.144H149.461C149.463 312.268 147.06 310.561 143.671 309.976Z" fill="#2DAAAE"/>
<path d="M135.653 303.917C135.573 304.269 135.528 304.634 135.528 305.009C135.528 307.672 137.678 309.829 140.332 309.829C142.986 309.829 145.138 307.672 145.138 305.009C145.138 304.634 145.095 304.269 145.012 303.917H135.653Z" fill="#2DAAAE"/>
<path d="M142.944 298.155H137.724C136.298 298.155 135.133 299.325 135.133 300.753L135.655 303.37H145.009L145.535 300.753C145.535 299.324 144.368 298.155 142.944 298.155ZM140.332 302.81C139.204 302.81 138.291 301.894 138.291 300.762C138.291 299.632 139.204 298.715 140.332 298.715C141.459 298.715 142.375 299.631 142.375 300.762C142.375 301.893 141.459 302.81 140.332 302.81Z" fill="#2DAAAE"/>
<path d="M141.66 300.257H140.839V299.433C140.839 299.322 140.747 299.232 140.638 299.232H140.032C139.924 299.232 139.833 299.322 139.833 299.433V300.257H139.008C138.898 300.257 138.809 300.348 138.809 300.457V301.065C138.809 301.176 138.898 301.266 139.008 301.266H139.833V302.091C139.833 302.202 139.924 302.292 140.032 302.292H140.638C140.747 302.292 140.839 302.202 140.839 302.091V301.266H141.66C141.768 301.266 141.86 301.176 141.86 301.065V300.457C141.86 300.348 141.768 300.257 141.66 300.257Z" fill="#2DAAAE"/>
</g>
</svg>
